<svg width="10" height="18" viewBox="0 0 10 18" fill="none" xmlns="http://www.w3.org/2000/svg">
<path d="M5.76233 17.5V9.72878V9.22878H6.26233H8.31421L8.56926 7.05024H6.26233H5.76233V6.55024V4.51756C5.76233 4.04287 5.81592 3.5084 6.13232 3.0963C6.4732 2.65232 7.01571 2.47232 7.69807 2.47219L7.69734 2.4722L7.69877 2.97219V2.47219L5.76233 17.5ZM5.76233 17.5H3.76981V9.72878V9.22878H3.26981H1.26465V7.05024H3.26981H3.76981V6.55024V4.20585C3.76981 2.93535 4.12171 2.01695 4.67069 1.42094C5.21582 0.829122 6.00563 0.5 6.99855 0.5C7.69509 0.5 8.32447 0.539113 8.73524 0.575526L5.76233 17.5ZM8.73524 2.46923V2.9678H9.23524L9.23381 2.46781L8.73524 2.46923Z" fill="white" stroke="white"/>
</svg>
