<svg width="70" height="70" viewBox="0 0 70 70" fill="none" xmlns="http://www.w3.org/2000/svg">
<g clip-path="url(#clip0)">
<rect x="-0.000488281" width="70" height="70" fill="white"/>
<rect x="7.77734" y="54.4453" width="11" height="11" transform="rotate(45 7.77734 54.4453)" fill="#FFE7E9"/>
<rect x="27.9995" width="39.397" height="39.397" transform="rotate(45 27.9995 0)" fill="#FFE7E9"/>
<path d="M58.7495 39C58.7495 45.7927 54.861 52.2525 50.5048 57.0995C48.3427 59.5051 46.1087 61.4643 44.2786 62.8131C43.3621 63.4886 42.5639 63.9984 41.9407 64.3329C41.6283 64.5005 41.3779 64.6144 41.1911 64.6833C41.094 64.7191 41.0319 64.7361 40.9995 64.744C40.9672 64.7361 40.905 64.7191 40.8079 64.6833C40.6211 64.6144 40.3707 64.5005 40.0583 64.3329C39.4351 63.9984 38.6369 63.4886 37.7205 62.8131C35.8903 61.4643 33.6563 59.5051 31.4942 57.0995C27.138 52.2525 23.2495 45.7927 23.2495 39C23.2495 29.1969 31.1965 21.25 40.9995 21.25C50.8026 21.25 58.7495 29.1969 58.7495 39Z" stroke="black" stroke-width="2.5"/>
<circle cx="40.9995" cy="39" r="6" stroke="#FF090B" stroke-width="2.5" stroke-linecap="round" stroke-linejoin="round"/>
</g>
<defs>
<clipPath id="clip0">
<rect x="-0.000488281" width="70" height="70" fill="white"/>
</clipPath>
</defs>
</svg>
