<svg width="22" height="30" viewBox="0 0 22 30" fill="none" xmlns="http://www.w3.org/2000/svg">
<path d="M21.8258 9.74497C21.6589 9.33859 21.2872 9.07689 20.8771 9.07689C19.69 9.07689 11.526 9.07689 11.526 9.07689L14.7406 1.5258C14.8613 1.17959 14.8176 0.791056 14.6237 0.48638C14.4298 0.181814 14.1104 0 13.7692 0H6.03761C5.60578 0 5.21894 0.289911 5.0661 0.728137L0.164883 14.7822C0.0441303 15.1285 0.0878006 15.517 0.281777 15.8217C0.475754 16.1262 0.795156 16.3082 1.13639 16.3082L9.80939 16.2516L5.22697 29.475C5.16644 29.6498 5.2291 29.8466 5.37616 29.9435C5.52321 30.0405 5.71313 30.0101 5.82819 29.8713L21.6497 10.9573C21.9237 10.6263 21.9928 10.1514 21.8258 9.74497Z" fill="#F85B51"/>
</svg>
