<svg width="138" height="106" viewBox="0 0 138 106" fill="none" xmlns="http://www.w3.org/2000/svg">
<path d="M11.2873 37.8114C11.22 37.9799 11.1189 38.1483 11.0515 38.3168C9.19835 42.6633 8.28862 47.1445 8.28862 51.7605C8.28862 54.793 8.79403 57.7917 9.80483 60.7567C10.2429 62.0708 11.3884 64.6989 13.2753 68.6747C14.5893 71.3365 15.5664 73.7287 16.2066 75.8177C17.15 78.8502 17.6217 81.8826 17.6217 84.915C17.6217 86.7008 17.4196 88.6213 17.0153 90.6429H8.35601C8.99619 88.2844 9.29943 86.0269 9.29943 83.9379C9.29943 81.9163 8.9288 79.7936 8.22124 77.5361C7.85061 76.3905 7.00826 74.2679 5.62683 71.2354C3.60521 66.8216 2.29117 63.6881 1.71837 61.8012C0.572793 58.2634 0 54.6245 0 50.8508C0 46.8076 0.673874 42.7643 2.05531 38.7548C3.43675 34.7453 5.39097 30.8705 7.91799 27.0968H14.2187C19.1043 15.2704 28.9765 6.03834 41.2409 2.0625V11.0587C28.4037 16.3823 19.3738 29.0174 19.3738 43.8088C19.3738 55.0625 24.63 65.1032 32.8176 71.5724V62.5425H41.2409V90.6429H32.8176V81.7815C19.7444 74.2005 10.9504 60.0492 10.9504 43.8425C10.8493 41.7872 10.9841 39.7656 11.2873 37.8114ZM97.3408 85.9258C97.3408 84.7129 97.1049 83.8031 96.5995 83.1966C96.0941 82.5902 95.555 82.2195 94.9822 82.0848C94.8811 82.0511 94.8137 82.0511 94.7463 82.0511C94.679 82.0511 94.5779 82.0511 94.5105 82.0511C94.4431 82.0511 94.3757 82.0511 94.2746 82.0511C94.2072 82.0511 94.1062 82.0848 94.0388 82.0848C93.4323 82.2195 92.8932 82.5902 92.4215 83.1966C91.9161 83.8031 91.6802 84.7129 91.6802 85.9258C91.6802 87.1725 91.9498 88.1159 92.4552 88.7224C92.9606 89.3289 93.5334 89.6995 94.1399 89.8006C94.2073 89.8006 94.2746 89.8343 94.342 89.8343C94.4094 89.8343 94.4768 89.8343 94.5442 89.8343C94.6116 89.8343 94.679 89.8343 94.7463 89.8343C94.8137 89.8343 94.8811 89.8343 94.9485 89.8006C95.555 89.6995 96.1278 89.3289 96.6332 88.7224C97.1049 88.1159 97.3408 87.1725 97.3408 85.9258ZM97.3408 90.5418V88.9582C97.1386 89.3626 96.9027 89.6658 96.6332 89.9017C96.3973 90.1375 96.1278 90.3397 95.8582 90.4745C95.6224 90.6092 95.3528 90.6766 95.117 90.7103C94.8811 90.744 94.6453 90.7777 94.4431 90.7777C93.3312 90.7777 92.3878 90.3397 91.5791 89.4973C90.7705 88.655 90.3662 87.442 90.3662 85.8921C90.3662 84.3085 90.7705 83.0956 91.5791 82.2532C92.3878 81.4446 93.3986 81.0066 94.5442 81.0066C95.2517 81.0066 95.8245 81.2087 96.2962 81.6467C96.768 82.0511 97.1386 82.5565 97.3408 83.1293H97.4081V81.175H98.52L98.4526 82.9945V90.6092C98.4526 90.8451 98.4526 91.0809 98.4189 91.3842C98.3852 91.6874 98.3179 91.9907 98.2505 92.2939C98.082 92.9004 97.6777 93.4732 97.1049 93.9786C96.4984 94.484 95.555 94.7535 94.2072 94.7535C93.8029 94.7535 93.3312 94.7199 92.8258 94.6525C92.3204 94.5851 91.7813 94.4503 91.2085 94.2481L91.2759 93.1363C91.3433 93.17 91.4444 93.2036 91.5791 93.271C91.7139 93.3384 91.8824 93.3721 92.0509 93.4395C92.3204 93.5406 92.6573 93.608 92.9943 93.709C93.3649 93.7764 93.7692 93.8101 94.1736 93.8101C95.2181 93.8101 95.9593 93.5743 96.3973 93.1026C96.8353 92.6309 97.1049 92.1255 97.206 91.5863C97.2397 91.4179 97.2734 91.2157 97.2734 91.0472C97.3408 90.8451 97.3408 90.6766 97.3408 90.5418ZM102.53 90.6766H101.384V82.9608L101.317 81.2424H102.428V83.163H102.462C102.664 82.2532 104.416 81.074 105.326 81.074C105.495 81.074 105.663 81.074 105.832 81.1076C106 81.1076 106.168 81.1413 106.337 81.2087V82.3206C106.135 82.2532 105.966 82.2195 105.798 82.2195C105.629 82.2195 105.495 82.2195 105.394 82.2195C104.113 82.2195 102.563 83.7357 102.563 85.2856V90.6766H102.53ZM107.112 85.9595C107.112 84.6118 107.483 83.4662 108.257 82.5228C109.032 81.5794 110.144 81.074 111.627 81.074C113.109 81.074 114.255 81.5457 114.996 82.5228C115.771 83.4662 116.142 84.6455 116.142 85.9595C116.142 87.2736 115.771 88.4192 114.996 89.3963C114.221 90.3397 113.109 90.8114 111.627 90.8114C110.144 90.8114 109.032 90.3397 108.257 89.3963C107.516 88.4192 107.112 87.2736 107.112 85.9595ZM108.325 85.9595C108.325 86.128 108.325 86.3302 108.359 86.566C108.392 86.7682 108.426 86.9703 108.46 87.2062C108.628 87.8801 108.965 88.4865 109.47 89.0256C109.976 89.5984 110.683 89.868 111.627 89.868C112.57 89.868 113.312 89.5984 113.783 89.0256C114.289 88.4528 114.626 87.8464 114.794 87.2062C114.861 87.004 114.895 86.8019 114.895 86.566C114.929 86.3638 114.929 86.1617 114.929 85.9595C114.929 85.7911 114.929 85.5889 114.895 85.3867C114.861 85.1846 114.828 84.9824 114.794 84.7802C114.626 84.1064 114.322 83.4999 113.817 82.9271C113.312 82.3543 112.604 82.0848 111.627 82.0848C110.683 82.0848 109.942 82.3543 109.437 82.9271C108.931 83.4999 108.594 84.1064 108.46 84.7802C108.392 84.9824 108.359 85.1846 108.359 85.3867C108.359 85.5889 108.325 85.7574 108.325 85.9595ZM124.7 81.2087H125.846V88.6213L125.913 90.6766H124.801V88.7224H124.767C124.397 89.7332 122.678 91.0136 121.128 90.8114C120.96 90.7777 120.758 90.8114 120.522 90.7777C120.32 90.744 120.084 90.744 119.882 90.6766C119.343 90.5082 118.871 90.1712 118.433 89.6321C117.995 89.1267 117.793 88.2844 117.793 87.1051V81.2087H118.938V87.0377C118.938 87.1725 118.938 87.3746 118.972 87.6105C118.972 87.8464 119.006 88.0822 119.073 88.3181C119.174 88.6887 119.41 89.0593 119.713 89.3626C120.017 89.6995 120.556 89.868 121.263 89.868C121.364 89.868 121.432 89.868 121.533 89.868C121.634 89.868 121.701 89.8343 121.802 89.8343C123.15 89.531 124.666 88.1833 124.666 86.2965V81.2087H124.7ZM129.013 85.9258C129.013 87.2399 129.316 88.217 129.889 88.8572C130.462 89.4973 131.135 89.8343 131.877 89.8343C131.944 89.8343 132.011 89.8343 132.079 89.8343C132.146 89.8343 132.214 89.8343 132.281 89.8006C132.887 89.6995 133.46 89.3289 133.966 88.7224C134.471 88.1159 134.741 87.1725 134.741 85.9258C134.741 84.7129 134.505 83.8031 133.999 83.1966C133.494 82.5902 132.955 82.2195 132.382 82.0848C132.281 82.0511 132.214 82.0511 132.146 82.0511C132.079 82.0511 131.978 82.0511 131.91 82.0511C131.843 82.0511 131.776 82.0511 131.708 82.0511C131.641 82.0511 131.573 82.0511 131.506 82.0848C130.9 82.1858 130.327 82.5565 129.821 83.163C129.249 83.7694 129.013 84.7129 129.013 85.9258ZM129.013 94.7198H127.867V83.0619L127.8 81.2424H128.912V83.1966H128.979C129.249 82.5228 129.653 82.0174 130.226 81.6467C130.798 81.2761 131.405 81.1076 132.011 81.1076H132.045C132.079 81.1076 132.079 81.1076 132.079 81.1076C133.123 81.1076 134.033 81.512 134.808 82.3206C135.583 83.1293 135.954 84.3422 135.954 85.9932C135.954 87.5768 135.617 88.7561 134.909 89.4973C134.235 90.2386 133.46 90.6766 132.652 90.8114C132.517 90.8451 132.416 90.8451 132.281 90.8788C132.146 90.8788 132.011 90.9125 131.877 90.9125C131.203 90.9125 130.63 90.744 130.158 90.3734C129.687 90.0028 129.316 89.5984 129.046 89.093H128.979L129.013 90.744V94.7198ZM48.1481 77.3003L48.5861 73.6614C48.9568 73.8298 49.3948 73.9983 49.8328 74.1668C50.2708 74.3015 50.7425 74.4363 51.1805 74.5711C51.6186 74.6722 52.0566 74.7396 52.5283 74.8406C52.9663 74.908 53.4043 74.9417 53.7749 74.9417C54.8195 74.9417 55.6281 74.6722 56.2346 74.1668C56.8411 73.6614 57.1443 73.0886 57.1443 72.4147C57.1443 71.6398 56.9085 71.067 56.4704 70.6626C56.0324 70.2583 55.4596 69.8877 54.7521 69.5508C54.4825 69.416 54.1793 69.2812 53.876 69.1464C53.5728 69.0117 53.2359 68.8432 52.9326 68.7084C52.8315 68.641 52.7304 68.6073 52.6294 68.5399C52.5283 68.5062 52.4272 68.4389 52.3261 68.3715C51.0458 67.6976 50.035 66.99 49.26 66.2151C48.4851 65.4401 48.1144 64.3282 48.1144 62.8794C48.1144 62.5762 48.1481 62.1718 48.2492 61.7001C48.3166 61.2284 48.4851 60.7567 48.6535 60.285C49.0242 59.4427 49.698 58.6677 50.6078 57.9938C51.5175 57.32 52.8989 56.9493 54.7184 56.9493C55.6955 56.9493 56.6052 57.0167 57.4139 57.1178C58.2225 57.2526 58.9301 57.3537 59.5366 57.5221C59.7724 57.5895 60.0083 57.6569 60.2104 57.6906C60.4126 57.758 60.5811 57.7917 60.7158 57.8254L60.2778 61.1947C59.9072 61.0263 59.5029 60.8915 59.0648 60.7567C58.6605 60.6219 58.2225 60.5209 57.8182 60.4198C57.4475 60.3524 57.0769 60.285 56.74 60.2513C56.4031 60.2176 56.0324 60.1839 55.6955 60.1839C54.7858 60.1839 54.1119 60.3187 53.6739 60.5883C53.2359 60.8578 52.9326 61.161 52.7305 61.4643C52.6631 61.6328 52.5957 61.8012 52.562 61.9697C52.5283 62.1382 52.5283 62.2729 52.5283 62.374C52.5283 63.0479 52.7304 63.587 53.1348 63.9913C53.5391 64.3956 53.9771 64.7326 54.4488 64.9684C54.6173 65.0358 54.7521 65.1032 54.8868 65.1706C55.0216 65.238 55.1564 65.3054 55.2912 65.3391C55.3249 65.3727 55.3249 65.3727 55.3586 65.3727C55.3922 65.3727 55.4259 65.3727 55.4596 65.3727C55.4933 65.4064 55.527 65.4064 55.5944 65.4401C55.6281 65.4738 55.6618 65.4738 55.7292 65.5075C57.2117 66.1477 58.5931 66.9226 59.8061 67.7987C61.0191 68.6747 61.6593 70.1572 61.6593 72.2462C61.6593 72.3136 61.6593 72.4147 61.6593 72.4821C61.6593 72.5495 61.6593 72.6506 61.6256 72.7179C61.5245 74.1331 60.8506 75.4134 59.6039 76.5927C58.3573 77.7383 56.3694 78.3448 53.6402 78.3448C52.5283 78.3448 51.5512 78.2437 50.6414 78.0415C49.698 77.8057 48.8894 77.5698 48.1481 77.3003ZM73.0477 71.067H72.3738C72.3401 71.067 72.3064 71.067 72.2727 71.067C72.239 71.067 72.2053 71.067 72.2053 71.067C71.9021 71.067 71.5989 71.067 71.2619 71.067C70.925 71.067 70.5881 71.1006 70.2511 71.1343C69.4088 71.2017 68.6338 71.4376 67.9599 71.7745C67.2524 72.1115 66.9154 72.7179 66.9154 73.594C66.9154 73.6277 66.9154 73.6277 66.9154 73.6277V73.6614C66.9491 74.1331 67.1176 74.5711 67.4545 74.9754C67.7915 75.3797 68.4654 75.5819 69.3751 75.5819C70.3522 75.5819 71.2282 75.2787 71.9695 74.6722C72.7107 74.0657 73.0814 72.9875 73.0814 71.4376V71.067H73.0477ZM64.5569 66.5857V63.3848C65.1634 63.149 65.7362 62.9468 66.309 62.812C66.8818 62.6773 67.4209 62.5762 67.9936 62.4751C68.3643 62.4414 68.7686 62.4077 69.1392 62.374C69.5098 62.3403 69.9142 62.3403 70.2848 62.3403C72.4749 62.3403 74.0248 62.7109 74.9682 63.4185C75.9116 64.1598 76.5181 64.9684 76.8214 65.8445C76.9561 66.2825 77.0572 66.7205 77.0909 67.1585C77.1246 67.5965 77.1583 67.9671 77.1583 68.3041V78.1089H73.1824V75.8177H73.1151C72.8455 76.3905 72.4749 76.8286 72.0706 77.1655C71.6662 77.5024 71.1945 77.7383 70.7565 77.9068C70.2848 78.0752 69.8131 78.21 69.3751 78.2437C68.9371 78.2774 68.5664 78.3111 68.2969 78.3111C66.5111 78.3111 65.1971 77.9068 64.3884 77.1318C63.5798 76.3569 63.0744 75.4808 62.9059 74.5374C62.8722 74.3689 62.8385 74.2342 62.8385 74.0657C62.8385 73.9309 62.8385 73.7625 62.8385 73.594C62.8385 73.5603 62.8385 73.5266 62.8385 73.4592C62.8385 73.4255 62.8385 73.3918 62.8385 73.3244C62.9059 72.1115 63.445 70.9996 64.4895 69.9551C65.534 68.9443 67.5556 68.4389 70.5207 68.4389C70.7228 68.4389 70.925 68.4389 71.0935 68.4389C71.2956 68.4389 71.4641 68.4389 71.6662 68.4389C71.8684 68.4725 72.0706 68.4725 72.239 68.4725C72.4075 68.4725 72.6097 68.4725 72.7781 68.4725H73.1488L73.1151 67.7987C73.0814 66.8553 72.7107 66.1814 72.0369 65.7771C71.363 65.3727 70.5544 65.1369 69.6446 65.1369C68.9034 65.1369 68.1284 65.238 67.3535 65.4064C66.4437 65.6423 65.534 66.0129 64.5569 66.5857ZM77.3268 62.6099H81.808L85.0763 72.2125L85.7165 74.5037H85.8175L86.3903 72.2125L89.5238 62.6099H93.7018L87.9739 78.1426H83.1894L77.3268 62.6099ZM94.5105 62.6099H98.5874V78.1426H94.5105V62.6099ZM98.6548 56.9157V61.1274H94.4768V56.9157H98.6548ZM102.799 65.5749H99.733V62.5762H102.799V59.4764L106.876 58.196V62.5762H110.481V65.5749H106.876V72.6169C106.876 73.3918 106.977 74.032 107.179 74.5374C107.381 75.0765 107.954 75.346 108.898 75.346C108.931 75.346 108.965 75.346 109.032 75.346C109.066 75.346 109.1 75.346 109.167 75.346C109.403 75.3123 109.639 75.2787 109.875 75.245C110.111 75.2113 110.313 75.1439 110.515 75.0765V77.9405C110.212 78.0078 109.875 78.0415 109.538 78.1089C109.167 78.1426 108.83 78.21 108.46 78.2437C108.291 78.2774 108.089 78.2774 107.921 78.2774C107.752 78.2774 107.55 78.2774 107.381 78.2774C106 78.2774 104.989 78.0078 104.383 77.435C103.776 76.8623 103.338 76.2221 103.136 75.5482C103.001 75.1776 102.934 74.8406 102.9 74.47C102.866 74.0994 102.866 73.7961 102.866 73.5266V65.5749H102.799ZM121.836 71.067H121.162C121.128 71.067 121.095 71.067 121.061 71.067C121.027 71.067 120.994 71.067 120.994 71.067C120.69 71.067 120.387 71.067 120.05 71.067C119.713 71.067 119.376 71.1006 119.039 71.1343C118.197 71.2017 117.422 71.4376 116.748 71.7745C116.041 72.1115 115.704 72.7179 115.704 73.594C115.704 73.6277 115.704 73.6277 115.704 73.6277V73.6614C115.737 74.1331 115.906 74.5711 116.243 74.9754C116.58 75.3797 117.22 75.5819 118.163 75.5819C119.14 75.5819 120.017 75.2787 120.758 74.6722C121.499 74.0657 121.87 72.9875 121.87 71.4376V71.067H121.836ZM113.379 66.5857V63.3848C113.985 63.149 114.558 62.9468 115.131 62.812C115.704 62.6773 116.243 62.5762 116.816 62.4751C117.186 62.4414 117.591 62.4077 117.961 62.374C118.332 62.3403 118.736 62.3403 119.107 62.3403C121.297 62.3403 122.847 62.7109 123.79 63.4185C124.734 64.1598 125.34 64.9684 125.643 65.8445C125.778 66.2825 125.879 66.7205 125.913 67.1585C125.947 67.5965 125.98 67.9671 125.98 68.3041V78.1089H122.004V75.8177H121.937C121.668 76.3905 121.297 76.8286 120.893 77.1655C120.488 77.5024 120.05 77.7383 119.578 77.9068C119.107 78.0752 118.635 78.21 118.197 78.2437C117.759 78.2774 117.388 78.3111 117.119 78.3111C115.333 78.3111 114.019 77.9068 113.177 77.1318C112.368 76.3569 111.863 75.4808 111.694 74.5374C111.661 74.3689 111.627 74.2342 111.627 74.0657C111.627 73.9309 111.627 73.7625 111.627 73.594C111.627 73.5603 111.627 73.5266 111.627 73.4592C111.627 73.4255 111.627 73.3918 111.627 73.3244C111.694 72.1115 112.233 70.9996 113.278 69.9551C114.322 68.9443 116.344 68.4389 119.309 68.4389C119.511 68.4389 119.713 68.4389 119.882 68.4389C120.084 68.4389 120.252 68.4389 120.455 68.4389C120.657 68.4725 120.859 68.4725 121.027 68.4725C121.196 68.4725 121.398 68.4725 121.566 68.4725H121.937L121.903 67.7987C121.87 66.8553 121.499 66.1814 120.825 65.7771C120.151 65.3727 119.343 65.1369 118.433 65.1369C117.692 65.1369 116.917 65.238 116.142 65.4064C115.232 65.6423 114.356 66.0129 113.379 66.5857ZM127.766 62.6099H131.472V65.9792H131.573C131.809 64.9347 132.281 64.0587 132.989 63.3848C133.73 62.7109 134.64 62.374 135.718 62.374C135.819 62.374 135.92 62.374 136.021 62.374C136.122 62.374 136.223 62.4077 136.324 62.4077C136.459 62.4077 136.594 62.4077 136.729 62.4414C136.863 62.4751 136.964 62.5088 137.065 62.5088L136.931 65.4738C136.83 65.4401 136.729 65.4401 136.594 65.4401C136.459 65.4401 136.358 65.4401 136.223 65.4401C136.088 65.4064 135.987 65.4064 135.886 65.4064C135.785 65.4064 135.684 65.4064 135.583 65.4064C135.381 65.4064 135.145 65.4401 134.875 65.4738C134.606 65.5075 134.303 65.6086 134.033 65.7434C133.46 66.0129 132.955 66.5183 132.517 67.2596C132.045 68.0008 131.843 69.1127 131.843 70.6289V78.0752H127.766V62.6099Z" fill="black"/>
<path fill-rule="evenodd" clip-rule="evenodd" d="M12.2314 93.3986C15.7018 93.3986 18.5321 96.2289 18.5321 99.6993C18.5321 103.17 15.7018 106 12.2314 106C8.76092 106 5.93066 103.17 5.93066 99.6993C5.93066 96.2289 8.76092 93.3986 12.2314 93.3986ZM54.719 0C78.9447 0 98.5543 19.6434 98.5543 43.8353H90.1309C90.1309 24.2931 74.2612 8.4234 54.719 8.4234C49.9345 8.4234 45.3521 9.36682 41.1741 11.1189V2.1227C45.4195 0.74126 49.9682 0 54.719 0Z" fill="#F85B51"/>
</svg>
