<svg width="114" height="33" viewBox="0 0 114 33" fill="none" xmlns="http://www.w3.org/2000/svg">
<g clip-path="url(#clip0)">
<path d="M113.714 16.5563C113.714 26.1297 107.294 33 97.9463 33C89.0487 33 82.4037 26.6928 82.4037 16.5563C82.4037 5.6314 90.2876 0 98.1716 0C105.83 0 113.714 5.29352 113.714 16.5563ZM106.056 16.5563C106.056 11.9386 103.803 6.64505 98.059 6.64505C92.8781 6.64505 90.0624 11.1502 90.0624 16.5563C90.0624 22.6382 93.4412 26.4676 98.059 26.4676C103.803 26.4676 106.056 21.1741 106.056 16.5563ZM79.7006 29.959C77.7859 31.198 73.8439 32.8874 68.4378 32.8874C57.8508 32.8874 52.5573 25.5666 52.5573 16.6689C52.5573 6.64505 59.6528 0 69.0009 0C73.6187 0 76.547 0.788396 79.1375 2.0273L76.4344 8.22184C74.4071 7.43345 72.1545 6.87031 69.3388 6.87031C62.5811 6.87031 60.3286 10.9249 60.3286 16.4437C60.3286 22.413 63.3695 26.3549 68.7757 26.3549C70.6904 26.3549 72.1545 25.9044 72.605 25.6792V20.0478H67.1989V13.7406H79.588L79.7006 29.959ZM43.4344 32.4369C42.4207 28.6075 40.6187 25.6792 39.1545 23.7645C37.9156 22.1877 37.0146 21.8498 37.0146 21.8498H34.4241V32.4369H26.9907V0.901024C28.5675 0.675768 29.6938 0.56314 31.2706 0.337884C32.7347 0.225256 34.4241 0.112628 36.3388 0.112628C38.8166 0.112628 40.9566 0.337884 42.646 0.901024C44.3354 1.46416 45.7996 2.25256 46.9259 3.15358C48.0521 4.16724 48.8405 5.29352 49.4037 6.64505C49.9668 7.88396 50.1921 9.2355 50.1921 10.6997C50.1921 12.6143 49.7416 14.4164 48.7279 16.1058C47.8269 17.57 46.2501 18.9215 44.6733 19.9352V20.0478C48.1648 21.6246 50.1921 26.8055 52.1067 32.4369H43.4344ZM42.8712 10.9249C42.8712 9.57338 42.4207 8.55973 41.4071 7.77133C40.3934 6.98294 39.1545 6.64505 37.5777 6.64505H36.3388C35.7757 6.64505 34.762 6.75768 34.4241 6.75768V15.8805C34.8747 15.9932 35.8883 15.9932 36.7893 15.9932C38.5914 15.9932 40.1682 15.5427 41.2945 14.6416C42.3081 13.8532 42.8712 12.5017 42.8712 10.9249ZM0.973633 24.8908V0.56314H22.7108V7.32082H8.40708V12.8396H20.5709V19.2594H8.40708V22.6382C8.40708 24.7782 9.64599 25.6792 11.3354 25.6792H23.3866V32.4369H8.51971C2.88831 32.4369 0.973633 29.8464 0.973633 24.8908Z" fill="#EC1A3B"/>
</g>
<defs>
<clipPath id="clip0">
<rect x="0.973633" width="112.741" height="33" fill="white"/>
</clipPath>
</defs>
</svg>
