<svg width="98" height="45" viewBox="0 0 98 45" fill="none" xmlns="http://www.w3.org/2000/svg">
<path fill-rule="evenodd" clip-rule="evenodd" d="M4.53305 6.82422C3.74408 6.82422 2.41069 6.82422 1.59143 7.61319C0.713867 8.46274 0.713867 9.88017 0.713867 10.4859V17.5276C0.713867 18.1266 0.713867 19.5463 1.5884 20.3913C2.41524 21.1818 3.74408 21.1818 4.53305 21.1818H12.5144C13.3064 21.1818 14.6292 21.1818 15.4545 20.3988C16.3328 19.5463 16.3328 18.1266 16.3328 17.5276V15.4946H12.2222V17.7472H4.82608V10.2588H12.2222V12.3054H16.3328V10.4859C16.3328 9.88017 16.3328 8.46274 15.4545 7.61319C14.633 6.82422 13.3064 6.82422 12.5144 6.82422H4.53305Z" fill="#00437B"/>
<path fill-rule="evenodd" clip-rule="evenodd" d="M24.6486 17.7487H33.9103V10.2588H24.6486V17.7487ZM24.3556 6.82422C23.5636 6.82422 22.2385 6.82422 21.4208 7.61395C20.5439 8.46426 20.5439 9.88093 20.5439 10.4859V17.5284C20.5439 18.1281 20.5439 19.5463 21.4185 20.3996C22.243 21.1825 23.5636 21.1825 24.3556 21.1825H34.2049C34.9976 21.1825 36.3212 21.1825 37.1435 20.3996C38.0271 19.5463 38.0271 18.1281 38.0271 17.5284V10.4859C38.0271 9.88093 38.0271 8.46426 37.1503 7.61395C36.3288 6.82422 34.9976 6.82422 34.2049 6.82422H24.3556Z" fill="#00437B"/>
<path fill-rule="evenodd" clip-rule="evenodd" d="M55.7502 6.82422H42.6519V21.1818H46.7618V10.2588H56.2515V6.82422H55.7502Z" fill="#00437B"/>
<path fill-rule="evenodd" clip-rule="evenodd" d="M63.5066 10.9675C64.0336 11.9548 65.0937 13.9401 65.5798 14.8487H61.3562C61.8651 13.9341 62.9637 11.9503 63.5066 10.9675ZM65.1474 6.82422H61.8461L53.7148 21.1818H58.0073C58.0073 21.1818 59.3111 18.7209 59.5398 18.2803H67.4394C67.6741 18.7194 69.0211 21.1818 69.0211 21.1818H73.6808L65.4344 6.82422H65.1474Z" fill="#00437B"/>
<path fill-rule="evenodd" clip-rule="evenodd" d="M40.3155 34.8838C40.289 34.328 40.2231 34.2568 39.6045 34.2266H37.8199L37.8184 35.6667H39.3903C40.1595 35.641 40.289 35.5357 40.3155 34.8838Z" fill="#00437B"/>
<path fill-rule="evenodd" clip-rule="evenodd" d="M62.1907 34.2266H60.4492V36.0006H61.7463C62.692 35.9726 62.9555 35.8946 62.9827 35.0882C62.9486 34.4136 62.9153 34.2576 62.1907 34.2266Z" fill="#00437B"/>
<path fill-rule="evenodd" clip-rule="evenodd" d="M33.6184 34.1641C32.182 34.2019 32.1275 34.3322 32.0889 36.0419C32.1267 37.7304 32.2009 37.8712 33.6184 37.9098C35.0343 37.8712 35.0911 37.7304 35.1312 36.0419C35.0911 34.3322 35.0403 34.2019 33.6184 34.1641Z" fill="#00437B"/>
<path fill-rule="evenodd" clip-rule="evenodd" d="M48.5527 35.1602C48.5565 35.6728 48.9101 35.9423 49.7082 35.9522H51.1922V34.2266H49.4273C48.7117 34.2485 48.5732 34.4946 48.5527 35.1602Z" fill="#00437B"/>
<path fill-rule="evenodd" clip-rule="evenodd" d="M39.5871 36.3398H37.8184V37.8701H39.3395C40.2549 37.8413 40.4458 37.8284 40.467 37.0947C40.4336 36.3398 40.3625 36.3785 39.5871 36.3398Z" fill="#00437B"/>
<path fill-rule="evenodd" clip-rule="evenodd" d="M79.2341 6.82422C78.4845 6.82422 77.4555 6.93704 76.8346 7.46252C75.9888 8.19773 75.9888 9.37514 75.9888 9.75827V12.3054H79.6331V10.0006H85.9729C86.3962 10.0006 86.4772 10.0937 86.4772 10.0937C86.5287 10.1452 86.5847 10.2466 86.5847 10.5624V11.6754C86.5847 11.9965 86.5173 12.0843 86.4961 12.1002C86.4204 12.1782 86.3015 12.1865 86.0683 12.1865H81.1437V15.3576H86.1796C86.487 15.3576 86.6862 15.4287 86.7263 15.4704C86.777 15.5135 86.8437 15.6029 86.8437 15.9467V17.2104C86.8437 17.4557 86.7831 17.6056 86.7528 17.6404C86.6991 17.6942 86.5847 17.7472 86.1796 17.7472H79.4537V15.4946H75.6958V18.119C75.6958 18.808 75.7738 19.7961 76.4174 20.439C77.0739 21.0992 78.2429 21.1818 79.1826 21.1818H86.5173C88.1271 21.1818 89.2636 20.8902 89.9784 20.2868C90.6295 19.753 90.9566 19.0041 90.9566 18.0675V16.3639C90.9566 15.3182 90.544 14.6595 90.2017 14.2831C89.9822 14.0545 89.6914 13.8924 89.3969 13.7342C89.5975 13.5979 89.8232 13.4767 89.9822 13.2943C90.5198 12.6946 90.5894 12.0722 90.5894 11.5414V9.915C90.5894 9.14799 90.4955 8.28329 89.7861 7.63061C89.203 7.09756 88.3224 6.82422 87.167 6.82422H79.2341Z" fill="#00437B"/>
<path fill-rule="evenodd" clip-rule="evenodd" d="M0.782715 0.914666H91.025V0H0.782715V0.914666Z" fill="#00437B"/>
<path fill-rule="evenodd" clip-rule="evenodd" d="M0.714844 44.9994H90.8852V27.0703H0.714844V44.9994ZM10.4839 36.831C10.4839 37.4572 10.3734 37.9115 10.0205 38.1977C9.6707 38.4817 9.12326 38.5786 8.28961 38.5816C7.48928 38.5786 6.93048 38.4847 6.56855 38.0955C6.21193 37.7048 6.08624 37.0749 6.08624 36.0557C6.08624 35.0388 6.2089 34.402 6.56704 34.0007C6.92367 33.6017 7.48701 33.4942 8.28961 33.4942C9.99477 33.4639 10.3673 34.0583 10.4112 35.1501L10.4188 35.2622H10.3098H9.64874L9.63965 35.1736C9.51018 34.3437 9.50336 34.1991 8.28961 34.1643C7.12583 34.1915 6.90853 34.4081 6.87748 36.0557C6.90853 37.6972 7.11523 37.8767 8.28961 37.91C9.53819 37.8752 9.67675 37.7465 9.70477 36.831V36.7258H10.4839V36.831ZM15.2208 33.6479V34.215H13.5156V38.5309H13.4089H12.7244V34.215H11.1245H11.0223V34.1135V33.5449H15.2208V33.6479ZM19.8009 36.2957C19.4973 36.5653 19.0339 36.6607 18.354 36.6607H16.8888V38.5279H16.7851H16.1006V33.5449H18.7106C19.7616 33.5464 20.209 34.0272 20.2098 35.0055C20.2098 35.5976 20.1053 36.0209 19.8009 36.2957ZM25.3056 38.5279H24.606L24.5825 38.4612L24.213 37.5451H21.6931L21.2691 38.5279H21.204H20.4158L22.3927 33.61L22.4192 33.5464H23.4104L25.4555 38.5279H25.3056ZM30.7103 38.5309H29.9418L28.3608 36.4025L26.7798 38.5309H26.7298H25.8068L27.7687 35.9512L25.9628 33.5449H26.9214L28.3608 35.5136L29.8002 33.5449H30.7618L28.9521 35.9512L30.9193 38.5309H30.7103ZM35.4585 38.0917C35.0868 38.4817 34.5045 38.5786 33.6087 38.5786C32.7206 38.5786 32.133 38.4817 31.7681 38.0917C31.4046 37.6942 31.3001 37.0597 31.2979 36.0406C31.3001 35.0169 31.4046 34.3786 31.7681 33.9848C32.1376 33.5911 32.7274 33.4972 33.6231 33.4942C34.5075 33.4972 35.089 33.5911 35.4585 33.9863C35.8182 34.3846 35.9166 35.0169 35.9212 36.0406C35.9166 37.0597 35.8182 37.6942 35.4585 38.0917ZM39.8191 38.5309H37.0312V33.5449H39.6692C40.5876 33.5464 41.101 33.9167 41.101 34.823C41.1146 35.269 41.048 35.6703 40.6467 35.9035C41.1464 36.1049 41.2706 36.4971 41.2577 37.0431C41.2562 37.9191 40.8769 38.5264 39.8191 38.5309ZM46.8797 38.5309H46.1839L46.1574 38.4658L45.7886 37.5451H43.268L42.847 38.5309H42.7796H41.9929L43.9669 33.61L43.9949 33.5464H44.9815L47.035 38.5309H46.8797ZM51.9831 38.5279H51.8786H51.1911V36.613H49.7267L48.5516 38.5279H48.4902H47.59L48.8544 36.5214C48.2252 36.3639 47.7565 35.8543 47.7588 35.0456C47.7641 33.9992 48.4312 33.5464 49.5442 33.5449H51.9831V38.5279ZM58.8264 33.6479V34.215H56.1566V38.5279H56.0567H55.4721H55.3692V33.5449H58.8264V33.6479ZM63.3619 36.2942C63.0575 36.5675 62.5926 36.6561 61.9149 36.6561H60.449V38.5279H60.3461H59.6578V33.5464H62.2731C63.3203 33.5464 63.7655 34.0287 63.7662 35.0055C63.7662 35.5976 63.6663 36.0209 63.3619 36.2942ZM67.1546 37.723C66.9297 38.247 66.5617 38.5309 66.0862 38.5309H66.0802H65.426V38.4234V37.8563H65.8727C66.2066 37.8419 66.2626 37.8086 66.3845 37.5178L64.3939 33.5449H65.2503L66.8108 36.7167L68.2336 33.5449H69.0649L67.1546 37.723ZM74.3682 38.5309H74.2644H73.5769V34.215H70.7004V38.5309H70.6005H70.0159H69.9115V33.5449H74.3682V38.5309ZM80.0629 38.5279H79.9614H79.2709V34.215H76.4012V38.5279H76.299H75.7137H75.6092V33.5449H80.0629V38.5279ZM85.8341 38.5279H85.1329L85.1125 38.4658L84.7399 37.5451H82.2201L81.7976 38.5279H81.7347H80.9457L82.9477 33.5434H83.9389L85.9863 38.5279H85.8341Z" fill="#00437B"/>
<path fill-rule="evenodd" clip-rule="evenodd" d="M43.4932 36.8807H45.5141L44.5017 34.332L43.4932 36.8807Z" fill="#00437B"/>
<path fill-rule="evenodd" clip-rule="evenodd" d="M82.4492 36.883H84.4701L83.4585 34.332L82.4492 36.883Z" fill="#00437B"/>
<path fill-rule="evenodd" clip-rule="evenodd" d="M21.917 36.8807H23.9402L22.9263 34.332L21.917 36.8807Z" fill="#00437B"/>
<path fill-rule="evenodd" clip-rule="evenodd" d="M18.6423 34.1797H16.9023V35.9537H18.2001C19.1481 35.9257 19.4109 35.8462 19.4343 35.0414C19.4033 34.3667 19.37 34.2085 18.6423 34.1797Z" fill="#00437B"/>
<path fill-rule="evenodd" clip-rule="evenodd" d="M95.7365 11.3508C96.7804 11.3508 97.6267 10.5045 97.6267 9.46057C97.6267 8.41661 96.7804 7.57031 95.7365 7.57031C94.6925 7.57031 93.8462 8.41661 93.8462 9.46057C93.8462 10.5045 94.6925 11.3508 95.7365 11.3508ZM95.7365 10.9677C96.5688 10.9677 97.2436 10.2929 97.2436 9.46057C97.2436 8.62823 96.5688 7.95347 95.7365 7.95347C94.9041 7.95347 94.2293 8.62823 94.2293 9.46057C94.2293 10.2929 94.9041 10.9677 95.7365 10.9677Z" fill="#00437B"/>
<path fill-rule="evenodd" clip-rule="evenodd" d="M95.1348 8.72656H95.8579C96.0252 8.72656 96.1501 8.76291 96.2334 8.83484C96.3167 8.90677 96.3584 9.00747 96.3584 9.13619C96.3584 9.20813 96.3478 9.26794 96.3266 9.31489C96.3054 9.36259 96.2811 9.40045 96.2524 9.42998C96.2243 9.45875 96.1963 9.47919 96.1691 9.49207C96.1411 9.50494 96.1214 9.51327 96.1085 9.51781V9.5216C96.1312 9.52462 96.1554 9.53144 96.1812 9.5428C96.2077 9.55415 96.2319 9.57233 96.2546 9.59731C96.2774 9.6223 96.2963 9.6541 96.3107 9.69347C96.3258 9.7336 96.3334 9.78282 96.3334 9.84188C96.3334 9.93123 96.3394 10.0122 96.3531 10.0849C96.3667 10.1576 96.3879 10.2099 96.4159 10.2409H96.132C96.1115 10.2084 96.1002 10.172 96.0964 10.1326C96.0934 10.0933 96.0911 10.0546 96.0911 10.0183C96.0911 9.94864 96.0873 9.88882 96.0782 9.83885C96.0699 9.78888 96.0547 9.74723 96.032 9.71392C96.0093 9.6806 95.9783 9.65637 95.9396 9.64047C95.901 9.62533 95.8511 9.617 95.7905 9.617H95.3998V10.2409H95.1348V8.72656ZM95.3998 9.41559H95.8344C95.9192 9.41559 95.9836 9.3959 96.0275 9.35577C96.0714 9.31489 96.0934 9.25431 96.0934 9.17405C96.0934 9.12635 96.0865 9.08698 96.0722 9.05669C96.0578 9.02565 96.0388 9.00217 96.0139 8.98552C95.9889 8.9681 95.9608 8.95674 95.929 8.95144C95.8972 8.94539 95.8647 8.94311 95.8306 8.94311H95.3998V9.41559Z" fill="#00437B"/>
</svg>
