<svg width="16" height="10" viewBox="0 0 16 10" fill="none" xmlns="http://www.w3.org/2000/svg">
<path d="M8.86486 8.77385L8.86487 8.77379C8.88748 8.41491 8.97742 7.8931 9.21058 7.51818C9.32994 7.32624 9.53188 7.10218 9.8482 7.03399C10.1752 6.96351 10.4775 7.08995 10.7238 7.28132L10.7243 7.2817C10.9816 7.48212 11.2026 7.71971 11.3992 7.94675C11.4846 8.04539 11.561 8.13669 11.6347 8.22464C11.7435 8.35455 11.8462 8.47714 11.9624 8.60522L11.592 8.94114M8.86486 8.77385L13.6212 6.14686C13.6434 6.17106 13.6664 6.19629 13.6901 6.22228C13.8569 6.4052 14.058 6.62576 14.24 6.78661L13.9088 7.16114C13.9088 7.16117 13.9088 7.1612 13.9088 7.16123C14.146 7.37098 14.7415 7.93837 15.1331 8.48799C15.3371 8.77418 15.4374 8.99021 15.4559 9.11606C15.4565 9.11975 15.4569 9.12314 15.4573 9.12625C15.4522 9.12849 15.4462 9.13094 15.4393 9.13355L15.439 9.13365C15.4396 9.13343 15.433 9.13579 15.4168 9.13962C15.3999 9.14359 15.3772 9.1481 15.3478 9.15279C15.2886 9.16224 15.2131 9.17071 15.1225 9.17785C14.9413 9.19214 14.7212 9.19948 14.4888 9.20294C14.272 9.20618 14.0234 9.20576 13.7998 9.20538C13.5817 9.20502 13.3874 9.20469 13.2694 9.20783C12.9238 9.21698 12.6827 9.14768 12.4953 9.04868C12.3014 8.94622 12.1372 8.79756 11.962 8.60481L11.592 8.94114M8.86486 8.77385C8.85167 8.98365 8.83774 9.09717 8.82204 9.16287M8.86486 8.77385L13.2827 9.70765C12.4316 9.73021 11.9749 9.36226 11.592 8.94114M11.592 8.94114C11.4719 8.80868 11.3561 8.67058 11.2406 8.53295C10.9792 8.22127 10.7198 7.912 10.417 7.67614C9.69461 7.11481 9.40554 8.144 9.36388 8.80524C9.30777 9.69741 9.20915 9.69629 8.01813 9.68287C7.93775 9.68197 7.85241 9.68101 7.76177 9.68026M7.76177 9.68026L7.76594 9.18028M7.76177 9.68026L7.76589 9.18028C7.7659 9.18028 7.76592 9.18028 7.76594 9.18028M7.76177 9.68026L7.76594 9.18028M7.76594 9.18028C7.86305 9.18108 7.95226 9.18208 8.03461 9.183C8.26719 9.18562 8.44508 9.18761 8.59197 9.18273C8.68843 9.17952 8.756 9.17363 8.8044 9.16592C8.81088 9.16489 8.81674 9.16387 8.82204 9.16287M7.76594 9.18028C5.99733 9.16552 4.54723 8.01738 3.52146 6.61599L7.76594 9.18028ZM8.82204 9.16287C8.81937 9.17405 8.81665 9.18385 8.81387 9.1925C8.81108 9.20117 8.81158 9.2005 8.81549 9.19523C8.82201 9.18641 8.83805 9.16474 8.86418 9.15238C8.86447 9.15224 8.86462 9.15217 8.86462 9.15217C8.86461 9.15214 8.85298 9.15705 8.82204 9.16287ZM0.647205 1.23175L0.646665 1.23176C0.60839 1.23236 0.574252 1.23355 0.543824 1.23532C0.573558 1.31352 0.614955 1.40808 0.664941 1.5161C0.687851 1.5656 0.713823 1.62051 0.740343 1.67658C0.785373 1.77178 0.831979 1.87031 0.86784 1.95136L0.867951 1.95162C1.5426 3.47874 2.59929 5.35559 3.5214 6.61591L0.647205 1.23175ZM0.647205 1.23175C0.726749 1.2304 0.833399 1.2274 0.958619 1.22388C1.21534 1.21667 1.55012 1.20726 1.8894 1.20536C2.13753 1.20397 2.37273 1.20688 2.55985 1.2173C2.65376 1.22253 2.72839 1.22928 2.78289 1.23693C2.80229 1.23966 2.81596 1.24208 2.82482 1.24381M0.647205 1.23175L2.82482 1.24381M2.82482 1.24381C2.83446 1.25154 2.85184 1.26808 2.87631 1.30136C2.92025 1.36112 2.96931 1.45034 3.02876 1.58249C3.07494 1.68513 3.11973 1.79579 3.17123 1.92301C3.18636 1.96038 3.20206 1.99917 3.21855 2.03961C3.28874 2.21177 3.36916 2.40347 3.46567 2.59948L2.82482 1.24381ZM10.0777 5.32929L9.89566 4.8636L3.46574 2.59962C3.59161 2.85542 4.02953 3.71805 4.50809 4.39613C4.73735 4.72098 5.02108 5.07044 5.32209 5.25961C5.4743 5.35525 5.70874 5.45928 5.97921 5.40354C6.27118 5.34337 6.4513 5.13165 6.55307 4.92482L6.55324 4.92448C6.65981 4.70748 6.71856 4.39301 6.75472 4.09795C6.79335 3.78269 6.81382 3.41793 6.81525 3.0576C6.81668 2.69778 6.79918 2.33097 6.75846 2.01275C6.72096 1.71964 6.65509 1.38692 6.51534 1.1564L6.08779 1.41561L6.51583 1.15722C6.45648 1.05889 6.37395 0.955127 6.2741 0.862188C6.53197 0.816562 6.83267 0.806874 7.12799 0.803131L7.12855 0.803123C7.16999 0.802551 7.21359 0.801806 7.25895 0.801031C7.54916 0.796069 7.91157 0.789873 8.24527 0.819953C8.43785 0.837312 8.59557 0.864959 8.70884 0.901654C8.76132 0.918657 8.79126 0.933391 8.80644 0.941974C8.81365 0.965459 8.82772 1.01789 8.83992 1.11326C8.85806 1.2551 8.86626 1.43934 8.86706 1.66097C8.86804 1.93243 8.85859 2.22106 8.84869 2.52382C8.84194 2.72985 8.83499 2.94242 8.83095 3.16059C8.82168 3.66241 8.82778 4.19961 8.92282 4.59303C8.9683 4.78129 9.05446 5.03003 9.25237 5.20423C9.36148 5.30026 9.49898 5.36823 9.65829 5.38789C9.8121 5.40686 9.9553 5.37713 10.0776 5.32931C10.0777 5.3293 10.0777 5.3293 10.0777 5.32929ZM15.4822 9.11261C15.4822 9.11264 15.4817 9.11303 15.4807 9.11375L15.4822 9.11261Z" fill="white" stroke="white"/>
</svg>
