<svg width="31" height="28" viewBox="0 0 31 28" fill="none" xmlns="http://www.w3.org/2000/svg">
<g opacity="0.45">
<path d="M13.4331 3.21695H16.78C17.8277 3.21695 18.695 4.13056 18.858 5.3144H21.7858C21.5995 2.34837 19.4284 0 16.78 0H13.4331C10.7846 0 8.61351 2.34837 8.42725 5.3144H11.3551C11.5122 4.12413 12.3853 3.21695 13.4331 3.21695Z" fill="white"/>
<path d="M21.797 6.92578H18.8866H11.3197H8.40932H3.66543C2.78068 6.92578 1.78534 7.8587 1.24401 8.44418C0.906413 8.89456 0.842385 9.20338 0.871488 9.55081C1.08685 11.8606 2.47801 14.0352 4.8354 15.7467C6.92504 17.2586 9.55018 18.2559 12.414 18.6355C13.2871 18.7513 14.1893 18.8156 15.0973 18.8156C16.7795 18.8156 18.421 18.6097 19.9576 18.2173C21.9774 17.7026 23.8168 16.8662 25.3651 15.7467C27.7225 14.0352 29.1078 11.8542 29.329 9.55081C29.364 9.19695 29.1894 8.68867 28.9565 8.44418C28.4152 7.8587 27.4199 6.92578 26.535 6.92578H21.797Z" fill="white"/>
<path d="M26.6518 17.8952C25.2432 18.9182 23.625 19.7353 21.8672 20.3144C19.7659 21.0157 17.4726 21.3825 15.1035 21.3825C14.9347 21.3825 14.7601 21.3825 14.5913 21.376C10.4353 21.2859 6.53543 20.057 3.55517 17.8952C2.29789 16.9816 1.25598 15.9393 0.441079 14.7876C0.243175 14.5046 0.0976562 14.556 0.0976562 14.9098V23.8787C0.0976562 26.1498 1.69253 27.9964 3.65994 27.9964H20.5691H26.5354C27.1815 27.9964 27.7868 27.797 28.3049 27.4496C29.3759 26.7418 30.0977 25.4099 30.0977 23.8787V14.9163C30.0977 14.5625 29.9521 14.511 29.7543 14.7941C28.951 15.9392 27.9091 16.9816 26.6518 17.8952Z" fill="white"/>
</g>
</svg>
