<svg width="70" height="70" viewBox="0 0 70 70" fill="none" xmlns="http://www.w3.org/2000/svg">
<rect width="70" height="70" fill="white"/>
<path d="M0 57.5L2.5 0L49 14.5L0 57.5Z" fill="#FFE8E9"/>
<mask id="path-3-inside-1" fill="white">
<path d="M62 39C62 51.7025 51.7025 62 39 62C35.2416 62 31.6937 61.0985 28.5609 59.5C26.3863 59.5 22.3696 60.2459 19.5718 60.8267C18.1374 61.1244 16.8413 59.8539 17.1217 58.416C17.7088 55.4055 18.5 51.0498 18.5 49.4391C16.9015 46.3063 16 42.7584 16 39C16 26.2975 26.2975 16 39 16C51.7025 16 62 26.2975 62 39Z"/>
</mask>
<path d="M18.5 49.4391H21V48.8382L20.7269 48.3029L18.5 49.4391ZM28.5609 59.5L29.6971 57.2731L29.1618 57H28.5609V59.5ZM59.5 39C59.5 50.3218 50.3218 59.5 39 59.5V64.5C53.0833 64.5 64.5 53.0833 64.5 39H59.5ZM18.5 39C18.5 27.6782 27.6782 18.5 39 18.5V13.5C24.9167 13.5 13.5 24.9167 13.5 39H18.5ZM39 18.5C50.3218 18.5 59.5 27.6782 59.5 39H64.5C64.5 24.9167 53.0833 13.5 39 13.5V18.5ZM20.7269 48.3029C19.3037 45.5137 18.5 42.3543 18.5 39H13.5C13.5 43.1625 14.4992 47.0988 16.2731 50.5754L20.7269 48.3029ZM39 59.5C35.6457 59.5 32.4863 58.6963 29.6971 57.2731L27.4246 61.7269C30.9012 63.5008 34.8375 64.5 39 64.5V59.5ZM28.5609 57C26.0796 57 21.7965 57.8116 19.0637 58.3788L20.0799 63.2745C22.9428 62.6802 26.6929 62 28.5609 62V57ZM19.5755 58.8946C19.8712 57.3783 20.2214 55.5078 20.4986 53.8041C20.7638 52.1743 21 50.4812 21 49.4391H16C16 50.0077 15.8406 51.2978 15.5635 53.0011C15.2983 54.6305 14.9594 56.4432 14.6679 57.9375L19.5755 58.8946ZM19.0637 58.3788C19.2259 58.3452 19.3758 58.4102 19.4559 58.489C19.5371 58.5688 19.6087 58.724 19.5755 58.8946L14.6679 57.9375C14.0424 61.145 16.9123 63.932 20.0799 63.2745L19.0637 58.3788Z" fill="black" mask="url(#path-3-inside-1)"/>
<path d="M28.8126 45C28.8126 44.126 28.8696 43.366 28.9836 42.72C29.1102 42.0613 29.3066 41.485 29.5726 40.991C29.8512 40.497 30.2122 40.0663 30.6556 39.699C31.0989 39.3317 31.6436 38.9897 32.2896 38.673C32.7076 38.4703 33.1192 38.2803 33.5246 38.103C33.9299 37.913 34.2972 37.6977 34.6266 37.457C34.9559 37.2163 35.2219 36.944 35.4246 36.64C35.6272 36.3233 35.7286 35.9433 35.7286 35.5C35.7286 34.93 35.5512 34.4803 35.1966 34.151C34.8546 33.809 34.3669 33.638 33.7336 33.638C33.3789 33.638 33.0369 33.6887 32.7076 33.79C32.3909 33.8913 32.0932 34.0243 31.8146 34.189C31.5359 34.341 31.2826 34.512 31.0546 34.702C30.8266 34.892 30.6302 35.0757 30.4656 35.253L28.8696 33.581C29.0342 33.3783 29.2749 33.1503 29.5916 32.897C29.9082 32.631 30.2819 32.384 30.7126 32.156C31.1559 31.928 31.6562 31.738 32.2136 31.586C32.7709 31.4213 33.3852 31.339 34.0566 31.339C34.7912 31.339 35.4372 31.4403 35.9946 31.643C36.5646 31.8457 37.0396 32.1307 37.4196 32.498C37.8122 32.8527 38.1036 33.2833 38.2936 33.79C38.4962 34.2967 38.5976 34.854 38.5976 35.462C38.5976 36.0447 38.5089 36.5513 38.3316 36.982C38.1542 37.4 37.9136 37.7737 37.6096 38.103C37.3182 38.4323 36.9699 38.7237 36.5646 38.977C36.1719 39.2177 35.7476 39.4457 35.2916 39.661C34.8102 39.9017 34.3732 40.136 33.9806 40.364C33.6006 40.5793 33.2712 40.8073 32.9926 41.048C32.7266 41.2887 32.5176 41.542 32.3656 41.808C32.2262 42.074 32.1566 42.3717 32.1566 42.701H38.6166V45H28.8126ZM46.0086 45V41.941H40.3276V39.661L46.8066 31.51H48.5546V39.642H50.2266V41.941H48.5546V45H46.0086ZM42.8926 39.642H46.2936V35.348L42.8926 39.642Z" fill="#FF090B"/>
<path d="M67 18.5L56.5 6.5L69.5 5L67 18.5Z" fill="#FFE8E9"/>
</svg>
