<svg width="70" height="70" viewBox="0 0 70 70" fill="none" xmlns="http://www.w3.org/2000/svg">
<rect x="-0.000488281" width="70" height="70" fill="white"/>
<rect x="-0.000488281" width="39.5" height="39.5" rx="10" fill="#FFE8E9"/>
<rect x="11.9995" y="59" width="11" height="11" rx="2" fill="#FFE8E9"/>
<path d="M48.315 38C48.315 43.9453 47.2648 49.2682 45.6171 53.0579C44.7924 54.9548 43.8426 56.4109 42.8514 57.3752C41.866 58.3337 40.9041 58.75 39.9998 58.75C39.0954 58.75 38.1335 58.3337 37.1482 57.3752C36.157 56.4109 35.2072 54.9548 34.3825 53.0579C32.7348 49.2682 31.6846 43.9453 31.6846 38C31.6846 32.0547 32.7348 26.7318 34.3825 22.9421C35.2072 21.0452 36.157 19.5891 37.1482 18.6248C38.1335 17.6663 39.0954 17.25 39.9998 17.25C40.9041 17.25 41.866 17.6663 42.8514 18.6248C43.8426 19.5891 44.7924 21.0452 45.6171 22.9421C47.2648 26.7318 48.315 32.0547 48.315 38Z" stroke="#FF090B" stroke-width="2.5"/>
<line x1="20.8691" y1="32.9375" x2="59.13" y2="32.9375" stroke="black" stroke-width="2.5"/>
<line x1="20.8691" y1="46.3359" x2="59.13" y2="46.3359" stroke="black" stroke-width="2.5"/>
<circle cx="39.9995" cy="38" r="20.75" stroke="black" stroke-width="2.5"/>
</svg>
