<svg width="18" height="18" viewBox="0 0 18 18" fill="none" xmlns="http://www.w3.org/2000/svg">
<path d="M12.4822 1.05063L12.4822 1.05063C11.587 1.00979 11.3065 1 9.0005 1C6.69447 1 6.41394 1.00979 5.51874 1.05063L5.51873 1.05063C4.66143 1.08973 4.09784 1.22416 3.6138 1.41229L3.61376 1.41231C3.11482 1.60618 2.70078 1.86011 2.28068 2.28017C2.28067 2.28018 2.28067 2.28019 2.28066 2.28019M12.4822 1.05063L0.946744 3.43218C1.16393 2.87323 1.45458 2.3992 1.92712 1.92663L2.28066 2.28019M12.4822 1.05063C13.3395 1.08973 13.9031 1.22416 14.3872 1.41229L14.3872 1.41231C14.8862 1.60618 15.3002 1.86012 15.7203 2.28019C16.1404 2.70029 16.3943 3.11434 16.5882 3.61329C16.7763 4.09735 16.9108 4.66094 16.9499 5.51824C16.9907 6.41345 17.0005 6.69398 17.0005 9.00002C17.0005 11.306 16.9907 11.5866 16.9499 12.4817C16.9108 13.3391 16.7763 13.9027 16.5882 14.3867C16.3943 14.8857 16.1404 15.2997 15.7203 15.7198M12.4822 1.05063L2.28068 15.7198M2.28066 2.28019C1.8606 2.70029 1.60667 3.11434 1.4128 3.61327L1.41278 3.61331C1.22465 4.09736 1.09022 4.66094 1.05112 5.51824L1.05112 5.51825C1.01027 6.41345 1.00049 6.69398 1.00049 9.00002C1.00049 11.306 1.01027 11.5866 1.05112 12.4817L1.05112 12.4818C1.09022 13.3391 1.22465 13.9026 1.41278 14.3867L1.4128 14.3867C1.60667 14.8857 1.86061 15.2997 2.28068 15.7198M2.28066 2.28019L2.28068 15.7198M2.28068 15.7198C2.28067 15.7198 2.28067 15.7198 2.28066 15.7198L1.92712 16.0734L2.28068 15.7198ZM2.28068 15.7198C2.70078 16.1399 3.11483 16.3938 3.61377 16.5877C4.09784 16.7758 4.66143 16.9103 5.51874 16.9494C6.41394 16.9902 6.69447 17 9.0005 17C11.3065 17 11.587 16.9902 12.4822 16.9494C13.3395 16.9103 13.9031 16.7758 14.3872 16.5877C14.8861 16.3938 15.3002 16.1399 15.7203 15.7198M15.7203 15.7198L16.0739 16.0734L15.7203 15.7198M15.7203 15.7198C15.7203 15.7198 15.7203 15.7198 15.7203 15.7198M15.7203 15.7198L15.7203 15.7198M5.54297 1.58161C6.45083 1.54019 6.72874 1.53153 9.0005 1.53153C11.2722 1.53153 11.5501 1.54019 12.458 1.58161C13.3419 1.62192 13.8454 1.77197 14.1947 1.90772C14.6553 2.08673 14.9974 2.30893 15.3445 2.65607C15.6916 3.00316 15.9138 3.34524 16.0928 3.80582C16.2285 4.15512 16.3786 4.65862 16.4189 5.54249M5.54297 1.58161L15.9194 5.56527M5.54297 1.58161C4.6591 1.62192 4.15561 1.77196 3.80631 1.90772C3.34572 2.08672 3.00365 2.30892 2.65656 2.65603M5.54297 1.58161L2.65656 2.65603M16.4189 5.54249L15.9194 5.56527M16.4189 5.54249C16.4189 5.54249 16.4189 5.54249 16.4189 5.54248L15.9194 5.56527M16.4189 5.54249C16.4603 6.45035 16.469 6.72827 16.469 9.00002C16.469 11.2717 16.4603 11.5497 16.4189 12.4575M15.9194 5.56527C15.9603 6.46156 15.969 6.73041 15.969 9.00002C15.969 11.2696 15.9603 11.5384 15.9194 12.4347M16.4189 12.4575L15.9194 12.4347M16.4189 12.4575C16.4189 12.4575 16.4189 12.4575 16.4189 12.4575L15.9194 12.4347M16.4189 12.4575C16.3786 13.3414 16.2285 13.8449 16.0928 14.1942C15.9138 14.6548 15.6916 14.9968 15.3445 15.3439C15.3444 15.3439 15.3444 15.344 15.3444 15.344M15.9194 12.4347L15.3444 15.344M15.3444 15.344L14.9909 14.9904C14.6935 15.2879 14.4103 15.472 14.0135 15.6262C13.714 15.7426 13.264 15.8811 12.4352 15.9189L12.458 16.4184C13.3419 16.3781 13.8454 16.228 14.1947 16.0923C14.6553 15.9133 14.9973 15.6911 15.3444 15.344ZM5.54298 16.4184L5.56576 15.9189L5.54297 16.4184C5.54297 16.4184 5.54298 16.4184 5.54298 16.4184ZM5.54298 16.4184C4.65911 16.3781 4.15561 16.228 3.80631 16.0923C3.34571 15.9133 3.00362 15.6911 2.65652 15.3439L5.54298 16.4184ZM2.65656 2.65603C2.65655 2.65605 2.65654 2.65606 2.65652 2.65607C2.65654 2.65606 2.65655 2.65605 2.65656 2.65603ZM9.0005 5.13514C11.135 5.13514 12.8654 6.86548 12.8654 9.00002C12.8654 11.1345 11.135 12.8649 9.0005 12.8649C6.86597 12.8649 5.13563 11.1345 5.13563 9.00002C5.13563 6.86548 6.86597 5.13514 9.0005 5.13514ZM9.0005 12.3333C10.8414 12.3333 12.3338 10.841 12.3338 9.00002C12.3338 7.15905 10.8414 5.66667 9.0005 5.66667C7.15953 5.66667 5.66715 7.15904 5.66715 9.00002C5.66715 10.841 7.15953 12.3333 9.0005 12.3333ZM14.0578 4.46269C14.0578 4.74986 13.825 4.98267 13.5378 4.98267C13.2506 4.98267 13.0178 4.74987 13.0178 4.46269C13.0178 4.17548 13.2506 3.94267 13.5378 3.94267C13.825 3.94267 14.0578 4.17549 14.0578 4.46269Z" fill="white" stroke="white"/>
</svg>
