<svg width="192" height="42" viewBox="0 0 192 42" fill="none" xmlns="http://www.w3.org/2000/svg">
<path d="M36.9248 0.105469H27.6621V36.8527H36.9248V0.105469Z" fill="#003D81"/>
<path d="M27.6623 22.6549C26.0678 26.1474 22.5753 28.5011 18.5514 28.5011C13.0089 28.5011 8.52938 24.0216 8.52938 18.4791C8.52938 12.9366 13.0089 8.45711 18.5514 8.45711C22.5753 8.45711 26.0678 10.8867 27.6623 14.3033V2.53505C25.0049 1.01657 21.892 0.105469 18.5514 0.105469C8.37754 0.105469 0.177734 8.30527 0.177734 18.4791C0.177734 28.6529 8.37754 36.8527 18.5514 36.8527C21.892 36.8527 25.0049 35.9416 27.6623 34.4231V22.6549Z" fill="#41B6E6"/>
<path d="M47.4792 37.1567C50.4145 37.1567 52.7939 34.7772 52.7939 31.842C52.7939 28.9068 50.4145 26.5273 47.4792 26.5273C44.544 26.5273 42.1646 28.9068 42.1646 31.842C42.1646 34.7772 44.544 37.1567 47.4792 37.1567Z" fill="#003D81"/>
<path d="M110.04 4.94922C113.153 4.94922 115.962 6.84732 115.962 10.5676C115.962 14.2879 113.153 16.186 110.04 16.186C106.927 16.186 104.118 14.2879 104.118 10.5676C104.194 6.84732 107.003 4.94922 110.04 4.94922ZM110.04 7.3788C108.294 7.3788 107.306 8.97319 107.306 10.5676C107.306 12.2379 108.294 13.7564 110.04 13.7564C111.786 13.7564 112.773 12.162 112.773 10.5676C112.849 8.97319 111.862 7.3788 110.04 7.3788Z" fill="#003D81"/>
<path d="M71.3174 21.2031C72.8358 21.2031 74.2784 21.5828 75.5691 22.1902V24.0123C74.5062 23.2531 73.0636 22.9494 71.6211 22.9494C68.5082 22.9494 65.3194 24.8475 65.2434 29.0992C65.2434 33.1232 68.5841 35.0213 71.697 35.0213C73.2155 35.0213 74.658 34.6417 75.645 33.9584V35.7806C74.4302 36.3879 72.9118 36.7676 71.3174 36.7676C67.5212 36.7676 63.4212 34.1102 63.4972 29.0992C63.4212 23.8605 67.3693 21.2031 71.3174 21.2031Z" fill="#41B6E6"/>
<path d="M79.3655 36.4646V27.8093H75.5693V26.2148H84.8321V27.8093H81.0359V36.4646H79.3655Z" fill="#41B6E6"/>
<path d="M92.5 25.9219C95.461 25.9219 97.6628 28.1996 97.6628 31.3125C97.6628 34.4254 95.461 36.7031 92.5 36.7031C90.5259 36.7031 89.2352 35.792 88.5519 34.8809V41.1067H86.8057V26.1496H88.3241V27.8959C89.3112 26.833 90.5259 25.9219 92.5 25.9219ZM92.3481 27.5163C90.5259 27.5163 89.1593 28.7311 88.5519 30.0218V32.6032C89.1593 33.8939 90.5259 35.1087 92.3481 35.1087C94.3221 35.1087 95.9925 33.6661 95.9925 31.3125C95.9166 28.9588 94.3221 27.5163 92.3481 27.5163Z" fill="#41B6E6"/>
<path d="M154.378 27.8959V26.1496H155.896V36.3994H154.15V34.8809C153.391 35.792 152.176 36.7031 150.202 36.7031C147.241 36.7031 145.039 34.4254 145.039 31.3125C145.039 28.1996 147.241 25.9219 150.202 25.9219C152.176 25.9219 153.467 26.833 154.378 27.8959ZM146.785 31.3125C146.785 33.6661 148.38 35.1087 150.43 35.1087C152.252 35.1087 153.618 33.8939 154.226 32.6032V30.0218C153.618 28.7311 152.252 27.5163 150.43 27.5163C148.38 27.5163 146.785 28.9588 146.785 31.3125Z" fill="#41B6E6"/>
<path d="M108.216 27.8959V26.1496H109.734V36.3994H107.988V34.8809C107.229 35.792 106.014 36.7031 104.04 36.7031C101.079 36.7031 98.877 34.4254 98.877 31.3125C98.877 28.1996 101.079 25.9219 104.04 25.9219C106.014 25.9219 107.305 26.833 108.216 27.8959ZM100.623 31.3125C100.623 33.6661 102.218 35.1087 104.268 35.1087C106.09 35.1087 107.456 33.8939 108.064 32.6032V30.0218C107.456 28.7311 106.09 27.5163 104.268 27.5163C102.294 27.5163 100.623 28.9588 100.623 31.3125Z" fill="#41B6E6"/>
<path d="M121.503 26.2148L117.707 31.2258L121.655 36.5405H119.681L116.72 32.4406L113.683 36.5405H111.785L115.809 31.2258L112.013 26.2148H113.987L116.796 30.011L119.605 26.2148H121.503Z" fill="#41B6E6"/>
<path d="M127.273 25.9219C130.082 25.9219 132.74 27.82 132.74 31.3125C132.74 34.805 130.082 36.7031 127.273 36.7031C124.464 36.7031 121.807 34.805 121.807 31.3125C121.807 27.82 124.464 25.9219 127.273 25.9219ZM127.273 27.5922C125.147 27.5922 123.477 28.9588 123.477 31.3884C123.477 33.7421 125.147 35.1846 127.273 35.1846C129.399 35.1846 131.069 33.818 131.069 31.3884C131.069 28.9588 129.399 27.5922 127.273 27.5922Z" fill="#41B6E6"/>
<path d="M134.714 36.4646V26.2148H140.332C142.154 26.2148 143.521 27.2019 143.521 29.024C143.521 30.087 142.914 30.9221 142.154 31.3018C142.99 31.6055 143.825 32.3647 143.825 33.6554C143.825 35.3257 142.762 36.5405 140.484 36.5405H134.714V36.4646ZM136.384 30.5425H140.104C141.016 30.5425 141.699 30.1629 141.699 29.1759C141.699 28.037 140.788 27.7333 140.104 27.7333H136.384V30.5425ZM136.384 34.9461H140.256C141.319 34.9461 142.078 34.6424 142.078 33.5036C142.078 32.2888 141.167 31.9851 140.332 31.9851H136.384V34.9461Z" fill="#41B6E6"/>
<path d="M158.478 36.4646V26.2148H160.224V30.5425H166.146V26.2148H167.892V36.4646H166.146V32.1369H160.224V36.4646H158.478Z" fill="#41B6E6"/>
<path d="M170.246 36.4646V26.2148H171.992V33.7313L178.294 26.2148H179.737V36.4646H177.99V28.9481L171.689 36.4646H170.246Z" fill="#41B6E6"/>
<path d="M186.873 25.9219C190.821 25.9219 192.263 29.1866 191.656 32.0717H183.456C183.684 34.1976 185.582 35.1087 187.708 35.1087C188.999 35.1087 190.213 34.7291 191.124 34.2735V35.9439C190.213 36.3994 188.847 36.7031 187.48 36.7031C184.443 36.7031 181.786 34.9568 181.786 31.3125C181.71 27.7441 184.443 25.9219 186.873 25.9219ZM186.949 27.5163C185.202 27.5163 183.532 28.5792 183.456 30.5532H190.137C190.289 29.4903 189.606 27.5163 186.949 27.5163Z" fill="#41B6E6"/>
<path d="M86.5015 5.86278C85.4385 5.86278 84.4515 6.16648 83.6164 6.62202C83.9201 5.78686 84.5274 5.02761 85.8182 4.57206C87.7163 3.88875 90.9051 3.73689 91.3606 2.97765V0.320312C90.2977 1.30733 86.2737 1.07956 83.7682 2.74989C81.946 3.96468 80.5794 6.69794 80.7313 10.646C80.7313 14.2903 83.3886 16.2644 86.5015 16.2644C89.5384 16.2644 92.1958 14.5181 92.1958 11.1015C92.1958 7.60903 89.4625 5.86278 86.5015 5.86278ZM86.3496 13.8348C84.6034 13.8348 83.6164 12.5441 83.6164 11.0256C83.6164 9.50713 84.6034 8.1405 86.3496 8.1405C88.1718 8.1405 89.1588 9.58305 89.1588 11.0256C89.1588 12.5441 88.1718 13.8348 86.3496 13.8348Z" fill="#003D81"/>
<path d="M150.809 15.9614V7.91344H147.393V5.33203H157.263V7.91344H153.846V15.9614H150.809Z" fill="#003D81"/>
<path d="M141.016 4.94922C138.283 4.94922 135.853 6.39178 135.246 9.2769H133.576V5.25291H130.463V15.9582H133.576V11.9342H135.246C135.853 14.8194 138.283 16.2619 141.016 16.2619C144.129 16.2619 146.938 14.3638 146.938 10.6435C146.862 6.84732 144.129 4.94922 141.016 4.94922ZM141.016 13.8323C139.27 13.8323 138.283 12.2379 138.283 10.6435C138.283 8.97319 139.27 7.45473 141.016 7.45473C142.763 7.45473 143.75 9.04912 143.75 10.6435C143.75 12.2379 142.763 13.8323 141.016 13.8323Z" fill="#003D81"/>
<path d="M124.844 5.25391H122.643H119.53L118.315 12.0112C118.163 12.9223 117.48 13.4537 116.645 13.3019V15.9592C116.72 15.9592 116.72 15.9592 116.796 15.9592C119.302 16.4147 120.896 15.0481 121.352 12.5426L122.187 7.83534H124.844V15.8833H127.957V7.83534V5.25391H124.844Z" fill="#003D81"/>
<path d="M76.8605 15.9668H80.277L73.9754 0.402344H70.4069L64.0293 15.9668H67.4459C67.4459 15.9668 68.0533 14.3724 68.8125 12.3984H75.4938C76.2531 14.3724 76.8605 15.9668 76.8605 15.9668ZM69.8754 9.74102C71.0143 6.77998 72.1532 3.743 72.2291 3.43931C72.305 3.743 73.4439 6.77998 74.5827 9.74102H69.8754Z" fill="#003D81"/>
<path d="M99.6369 4.94922C100.852 4.94922 101.839 5.25291 102.826 5.70846V8.21397C102.066 7.6825 101.079 7.3788 100.092 7.3788C98.4221 7.3788 96.7518 8.44172 96.7518 10.5676C96.7518 12.6175 98.3462 13.7564 100.017 13.7564C101.155 13.7564 102.142 13.4527 102.902 12.9212V15.4268C101.839 15.8823 100.776 16.1101 99.4091 16.1101C96.524 16.1101 93.563 14.4397 93.563 10.6435C93.563 6.61955 96.6759 4.94922 99.6369 4.94922Z" fill="#003D81"/>
</svg>
