<svg width="117" height="90" viewBox="0 0 117 90" fill="none" xmlns="http://www.w3.org/2000/svg">
<path d="M9.68125 32.0989C9.62404 32.242 9.53821 32.385 9.481 32.528C7.90757 36.2184 7.13516 40.0233 7.13516 43.9425C7.13516 46.5172 7.56428 49.0633 8.42251 51.5808C8.79441 52.6965 9.76708 54.9279 11.3691 58.3036C12.4848 60.5637 13.3144 62.5948 13.858 64.3685C14.659 66.9432 15.0595 69.5179 15.0595 72.0926C15.0595 73.6088 14.8879 75.2394 14.5446 76.9559H7.19238C7.73593 74.9534 7.9934 73.0366 7.9934 71.263C7.9934 69.5465 7.67871 67.7442 7.07795 65.8275C6.76326 64.8548 6.04807 63.0525 4.87515 60.4778C3.15868 56.7302 2.04298 54.0697 1.55665 52.4677C0.58399 49.4638 0.0976562 46.3742 0.0976562 43.1701C0.0976562 39.7372 0.669813 36.3043 1.84273 32.8999C3.01565 29.4956 4.6749 26.2057 6.82048 23.0017H12.1701C16.3182 12.9603 24.7003 5.12181 35.1135 1.74609V9.38437C24.214 13.9044 16.5471 24.6323 16.5471 37.1911C16.5471 46.7461 21.0099 55.2712 27.9616 60.7639V53.097H35.1135V76.9559H27.9616V69.4321C16.8618 62.9953 9.39517 50.9801 9.39517 37.2197C9.30935 35.4746 9.42378 33.7582 9.68125 32.0989ZM82.7455 72.9508C82.7455 71.9209 82.5452 71.1485 82.1161 70.6336C81.687 70.1187 81.2292 69.804 80.7429 69.6895C80.6571 69.6609 80.5999 69.6609 80.5427 69.6609C80.4854 69.6609 80.3996 69.6609 80.3424 69.6609C80.2852 69.6609 80.228 69.6609 80.1421 69.6609C80.0849 69.6609 79.9991 69.6895 79.9419 69.6895C79.4269 69.804 78.9692 70.1187 78.5687 70.6336C78.1396 71.1485 77.9393 71.9209 77.9393 72.9508C77.9393 74.0093 78.1682 74.8103 78.5973 75.3253C79.0264 75.8402 79.5128 76.1549 80.0277 76.2407C80.0849 76.2407 80.1421 76.2693 80.1994 76.2693C80.2566 76.2693 80.3138 76.2693 80.371 76.2693C80.4282 76.2693 80.4854 76.2693 80.5427 76.2693C80.5999 76.2693 80.6571 76.2693 80.7143 76.2407C81.2292 76.1549 81.7156 75.8402 82.1447 75.3253C82.5452 74.8103 82.7455 74.0093 82.7455 72.9508ZM82.7455 76.8701V75.5255C82.5738 75.8688 82.3735 76.1263 82.1447 76.3265C81.9444 76.5268 81.7156 76.6984 81.4867 76.8129C81.2865 76.9273 81.0576 76.9845 80.8573 77.0131C80.6571 77.0417 80.4568 77.0703 80.2852 77.0703C79.3411 77.0703 78.5401 76.6984 77.8535 75.9832C77.1669 75.268 76.8236 74.2382 76.8236 72.9222C76.8236 71.5776 77.1669 70.5478 77.8535 69.8326C78.5401 69.146 79.3983 68.7741 80.371 68.7741C80.9718 68.7741 81.4581 68.9457 81.8586 69.3176C82.2591 69.6609 82.5738 70.09 82.7455 70.5764H82.8027V68.9171H83.7467L83.6895 70.4619V76.9273C83.6895 77.1275 83.6895 77.3278 83.6609 77.5853C83.6323 77.8427 83.5751 78.1002 83.5178 78.3577C83.3748 78.8726 83.0315 79.359 82.5452 79.7881C82.0303 80.2172 81.2292 80.446 80.0849 80.446C79.7416 80.446 79.3411 80.4174 78.912 80.3602C78.4829 80.303 78.0252 80.1886 77.5388 80.0169L77.5961 79.0729C77.6533 79.1015 77.7391 79.1301 77.8535 79.1873C77.9679 79.2445 78.111 79.2731 78.254 79.3303C78.4829 79.4162 78.769 79.4734 79.055 79.5592C79.3697 79.6164 79.713 79.645 80.0563 79.645C80.9432 79.645 81.5725 79.4448 81.9444 79.0443C82.3163 78.6438 82.5452 78.2146 82.631 77.7569C82.6596 77.6139 82.6882 77.4422 82.6882 77.2992C82.7455 77.1275 82.7455 76.9845 82.7455 76.8701ZM87.151 76.9845H86.1784V70.4333L86.1212 68.9743H87.0652V70.605H87.0938C87.2655 69.8326 88.7531 68.8313 89.5255 68.8313C89.6685 68.8313 89.8116 68.8313 89.9546 68.8599C90.0976 68.8599 90.2407 68.8885 90.3837 68.9457V69.8898C90.2121 69.8326 90.069 69.804 89.926 69.804C89.783 69.804 89.6685 69.804 89.5827 69.804C88.4956 69.804 87.1796 71.0913 87.1796 72.4073V76.9845H87.151ZM91.0417 72.9794C91.0417 71.8351 91.3564 70.8624 92.0144 70.0614C92.6723 69.2604 93.6164 68.8313 94.8751 68.8313C96.1339 68.8313 97.1065 69.2318 97.7359 70.0614C98.3939 70.8624 98.7086 71.8637 98.7086 72.9794C98.7086 74.0951 98.3939 75.0678 97.7359 75.8974C97.0779 76.6984 96.1339 77.0989 94.8751 77.0989C93.6164 77.0989 92.6723 76.6984 92.0144 75.8974C91.385 75.0678 91.0417 74.0951 91.0417 72.9794ZM92.0716 72.9794C92.0716 73.1225 92.0716 73.2941 92.1002 73.4944C92.1288 73.666 92.1574 73.8377 92.186 74.0379C92.329 74.6101 92.6151 75.125 93.0442 75.5827C93.4733 76.0691 94.0741 76.2979 94.8751 76.2979C95.6761 76.2979 96.3055 76.0691 96.706 75.5827C97.1351 75.0964 97.4212 74.5815 97.5643 74.0379C97.6215 73.8663 97.6501 73.6946 97.6501 73.4944C97.6787 73.3227 97.6787 73.1511 97.6787 72.9794C97.6787 72.8364 97.6787 72.6647 97.6501 72.4931C97.6215 72.3214 97.5929 72.1498 97.5643 71.9781C97.4212 71.406 97.1637 70.8911 96.7346 70.4047C96.3055 69.9184 95.7048 69.6895 94.8751 69.6895C94.0741 69.6895 93.4447 69.9184 93.0156 70.4047C92.5865 70.8911 92.3004 71.406 92.186 71.9781C92.1288 72.1498 92.1002 72.3214 92.1002 72.4931C92.1002 72.6647 92.0716 72.8078 92.0716 72.9794ZM105.975 68.9457H106.948V75.2394L107.005 76.9845H106.061V75.3253H106.032C105.717 76.1835 104.258 77.2706 102.943 77.0989C102.799 77.0703 102.628 77.0989 102.428 77.0703C102.256 77.0417 102.056 77.0417 101.884 76.9845C101.426 76.8415 101.026 76.5554 100.654 76.0977C100.282 75.6685 100.11 74.9534 100.11 73.9521V68.9457H101.083V73.8949C101.083 74.0093 101.083 74.1809 101.112 74.3812C101.112 74.5815 101.14 74.7817 101.197 74.982C101.283 75.2966 101.484 75.6113 101.741 75.8688C101.998 76.1549 102.456 76.2979 103.057 76.2979C103.143 76.2979 103.2 76.2979 103.286 76.2979C103.372 76.2979 103.429 76.2693 103.515 76.2693C104.659 76.0118 105.946 74.8675 105.946 73.2655V68.9457H105.975ZM109.637 72.9508C109.637 74.0665 109.894 74.8961 110.381 75.4397C110.867 75.9832 111.439 76.2693 112.068 76.2693C112.126 76.2693 112.183 76.2693 112.24 76.2693C112.297 76.2693 112.354 76.2693 112.412 76.2407C112.927 76.1549 113.413 75.8402 113.842 75.3253C114.271 74.8103 114.5 74.0093 114.5 72.9508C114.5 71.9209 114.3 71.1485 113.871 70.6336C113.442 70.1187 112.984 69.804 112.497 69.6895C112.412 69.6609 112.354 69.6609 112.297 69.6609C112.24 69.6609 112.154 69.6609 112.097 69.6609C112.04 69.6609 111.983 69.6609 111.925 69.6609C111.868 69.6609 111.811 69.6609 111.754 69.6895C111.239 69.7754 110.752 70.09 110.323 70.605C109.837 71.1199 109.637 71.9209 109.637 72.9508ZM109.637 80.4174H108.664V70.5191L108.607 68.9743H109.551V70.6336H109.608C109.837 70.0614 110.18 69.6323 110.667 69.3176C111.153 69.0029 111.668 68.8599 112.183 68.8599H112.211C112.24 68.8599 112.24 68.8599 112.24 68.8599C113.127 68.8599 113.899 69.2032 114.557 69.8898C115.215 70.5764 115.53 71.6062 115.53 73.008C115.53 74.3526 115.244 75.3539 114.643 75.9832C114.071 76.6126 113.413 76.9845 112.726 77.0989C112.612 77.1275 112.526 77.1275 112.412 77.1562C112.297 77.1562 112.183 77.1848 112.068 77.1848C111.496 77.1848 111.01 77.0417 110.609 76.727C110.209 76.4124 109.894 76.0691 109.665 75.6399H109.608L109.637 77.0417V80.4174ZM40.9781 65.6272L41.35 62.5376C41.6647 62.6806 42.0366 62.8237 42.4085 62.9667C42.7804 63.0811 43.1809 63.1956 43.5528 63.31C43.9247 63.3958 44.2966 63.453 44.6971 63.5389C45.069 63.5961 45.4409 63.6247 45.7556 63.6247C46.6425 63.6247 47.3291 63.3958 47.844 62.9667C48.3589 62.5376 48.6164 62.0513 48.6164 61.4791C48.6164 60.8211 48.4161 60.3348 48.0442 59.9915C47.6723 59.6482 47.186 59.3335 46.5853 59.0474C46.3564 58.933 46.0989 58.8186 45.8414 58.7042C45.584 58.5897 45.2979 58.4467 45.0404 58.3323C44.9546 58.275 44.8688 58.2464 44.783 58.1892C44.6971 58.1606 44.6113 58.1034 44.5255 58.0462C43.4384 57.474 42.5802 56.8732 41.9222 56.2153C41.2642 55.5573 40.9495 54.6132 40.9495 53.3831C40.9495 53.1256 40.9781 52.7823 41.064 52.3818C41.1212 51.9813 41.2642 51.5808 41.4072 51.1803C41.7219 50.4651 42.2941 49.8071 43.0665 49.235C43.8389 48.6628 45.0118 48.3481 46.5566 48.3481C47.3863 48.3481 48.1587 48.4053 48.8453 48.4912C49.5318 48.6056 50.1326 48.6914 50.6475 48.8345C50.8478 48.8917 51.0481 48.9489 51.2197 48.9775C51.3913 49.0347 51.5344 49.0633 51.6488 49.0919L51.2769 51.9527C50.9622 51.8097 50.6189 51.6952 50.247 51.5808C49.9038 51.4664 49.5318 51.3806 49.1886 51.2947C48.8739 51.2375 48.5592 51.1803 48.2731 51.1517C47.987 51.1231 47.6723 51.0945 47.3863 51.0945C46.6139 51.0945 46.0417 51.2089 45.6698 51.4378C45.2979 51.6666 45.0404 51.9241 44.8688 52.1816C44.8116 52.3246 44.7544 52.4677 44.7257 52.6107C44.6971 52.7537 44.6971 52.8682 44.6971 52.954C44.6971 53.5261 44.8688 53.9839 45.2121 54.3272C45.5554 54.6705 45.9273 54.9565 46.3278 55.1568C46.4708 55.214 46.5853 55.2712 46.6997 55.3284C46.8141 55.3857 46.9285 55.4429 47.043 55.4715C47.0716 55.5001 47.0716 55.5001 47.1002 55.5001C47.1288 55.5001 47.1574 55.5001 47.186 55.5001C47.2146 55.5287 47.2432 55.5287 47.3004 55.5573C47.3291 55.5859 47.3577 55.5859 47.4149 55.6145C48.6736 56.1581 49.8465 56.816 50.8764 57.5598C51.9063 58.3036 52.4498 59.5624 52.4498 61.3361C52.4498 61.3933 52.4498 61.4791 52.4498 61.5363C52.4498 61.5935 52.4498 61.6794 52.4212 61.7366C52.3354 62.9381 51.7633 64.0252 50.7048 65.0265C49.6463 65.9991 47.9584 66.5141 45.6412 66.5141C44.6971 66.5141 43.8675 66.4282 43.0951 66.2566C42.2941 66.0563 41.6075 65.8561 40.9781 65.6272ZM62.1193 60.3348H61.5471C61.5185 60.3348 61.4899 60.3348 61.4613 60.3348C61.4327 60.3348 61.4041 60.3348 61.4041 60.3348C61.1466 60.3348 60.8891 60.3348 60.6031 60.3348C60.317 60.3348 60.0309 60.3634 59.7448 60.392C59.0296 60.4492 58.3716 60.6495 57.7995 60.9356C57.1987 61.2216 56.9126 61.7366 56.9126 62.4804C56.9126 62.509 56.9126 62.509 56.9126 62.509V62.5376C56.9413 62.9381 57.0843 63.31 57.3704 63.6533C57.6564 63.9966 58.2286 64.1682 59.001 64.1682C59.8306 64.1682 60.5744 63.9108 61.2038 63.3958C61.8332 62.8809 62.1479 61.9654 62.1479 60.6495V60.3348H62.1193ZM54.9101 56.53V53.8122C55.425 53.612 55.9114 53.4403 56.3977 53.3259C56.884 53.2115 57.3418 53.1256 57.8281 53.0398C58.1428 53.0112 58.4861 52.9826 58.8008 52.954C59.1154 52.9254 59.4587 52.9254 59.7734 52.9254C61.6329 52.9254 62.9489 53.2401 63.7499 53.8408C64.5509 54.4702 65.0659 55.1568 65.3233 55.9006C65.4378 56.2725 65.5236 56.6444 65.5522 57.0163C65.5808 57.3882 65.6094 57.7029 65.6094 57.989V66.3138H62.2337V64.3685H62.1765C61.9476 64.8548 61.6329 65.2267 61.2896 65.5128C60.9463 65.7989 60.5458 65.9991 60.1739 66.1422C59.7734 66.2852 59.3729 66.3996 59.001 66.4282C58.6291 66.4569 58.3144 66.4855 58.0856 66.4855C56.5694 66.4855 55.4537 66.1422 54.7671 65.4842C54.0805 64.8262 53.6514 64.0824 53.5083 63.2814C53.4797 63.1384 53.4511 63.0239 53.4511 62.8809C53.4511 62.7665 53.4511 62.6234 53.4511 62.4804C53.4511 62.4518 53.4511 62.4232 53.4511 62.3659C53.4511 62.3373 53.4511 62.3087 53.4511 62.2515C53.5083 61.2216 53.9661 60.2776 54.8529 59.3907C55.7397 58.5325 57.4562 58.1034 59.9737 58.1034C60.1453 58.1034 60.317 58.1034 60.46 58.1034C60.6317 58.1034 60.7747 58.1034 60.9463 58.1034C61.118 58.132 61.2896 58.132 61.4327 58.132C61.5757 58.132 61.7474 58.132 61.8904 58.132H62.2051L62.1765 57.5598C62.1479 56.7588 61.8332 56.1867 61.261 55.8434C60.6889 55.5001 60.0023 55.2998 59.2299 55.2998C58.6005 55.2998 57.9425 55.3856 57.2845 55.5287C56.5121 55.7289 55.7397 56.0436 54.9101 56.53ZM65.7524 53.1542H69.5573L72.3322 61.3075L72.8758 63.2528H72.9616L73.4479 61.3075L76.1085 53.1542H79.6558L74.7925 66.3424H70.7302L65.7524 53.1542ZM80.3424 53.1542H83.8039V66.3424H80.3424V53.1542ZM83.8611 48.3195V51.8955H80.3138V48.3195H83.8611ZM87.3799 55.6717H84.7766V53.1256H87.3799V50.4937L90.8414 49.4066V53.1256H93.9025V55.6717H90.8414V61.6507C90.8414 62.3087 90.9273 62.8523 91.0989 63.2814C91.2705 63.7391 91.7569 63.968 92.5579 63.968C92.5865 63.968 92.6151 63.968 92.6723 63.968C92.7009 63.968 92.7296 63.968 92.7868 63.968C92.987 63.9394 93.1873 63.9108 93.3875 63.8822C93.5878 63.8535 93.7594 63.7963 93.9311 63.7391V66.1708C93.6736 66.228 93.3875 66.2566 93.1014 66.3138C92.7868 66.3424 92.5007 66.3996 92.186 66.4282C92.043 66.4569 91.8713 66.4569 91.7283 66.4569C91.5852 66.4569 91.4136 66.4569 91.2706 66.4569C90.0976 66.4569 89.2394 66.228 88.7245 65.7417C88.2095 65.2553 87.8376 64.7118 87.666 64.1396C87.5515 63.8249 87.4943 63.5389 87.4657 63.2242C87.4371 62.9095 87.4371 62.652 87.4371 62.4232V55.6717H87.3799ZM103.543 60.3348H102.971C102.943 60.3348 102.914 60.3348 102.885 60.3348C102.857 60.3348 102.828 60.3348 102.828 60.3348C102.571 60.3348 102.313 60.3348 102.027 60.3348C101.741 60.3348 101.455 60.3634 101.169 60.392C100.454 60.4492 99.7957 60.6495 99.2235 60.9356C98.6227 61.2216 98.3367 61.7366 98.3367 62.4804C98.3367 62.509 98.3367 62.509 98.3367 62.509V62.5376C98.3653 62.9381 98.5083 63.31 98.7944 63.6533C99.0805 63.9966 99.624 64.1682 100.425 64.1682C101.255 64.1682 101.998 63.9108 102.628 63.3958C103.257 62.8809 103.572 61.9654 103.572 60.6495V60.3348H103.543ZM96.3627 56.53V53.8122C96.8777 53.612 97.364 53.4403 97.8503 53.3259C98.3367 53.2115 98.7944 53.1256 99.2807 53.0398C99.5954 53.0112 99.9387 52.9826 100.253 52.954C100.568 52.9254 100.911 52.9254 101.226 52.9254C103.086 52.9254 104.402 53.2401 105.203 53.8408C106.004 54.4702 106.518 55.1568 106.776 55.9006C106.89 56.2725 106.976 56.6444 107.005 57.0163C107.033 57.3882 107.062 57.7029 107.062 57.989V66.3138H103.686V64.3685H103.629C103.4 64.8548 103.086 65.2267 102.742 65.5128C102.399 65.7989 102.027 65.9991 101.627 66.1422C101.226 66.2852 100.826 66.3996 100.454 66.4282C100.082 66.4569 99.7671 66.4855 99.5382 66.4855C98.022 66.4855 96.9063 66.1422 96.1911 65.4842C95.5045 64.8262 95.0754 64.0824 94.9324 63.2814C94.9037 63.1384 94.8751 63.0239 94.8751 62.8809C94.8751 62.7665 94.8751 62.6234 94.8751 62.4804C94.8751 62.4518 94.8751 62.4232 94.8751 62.3659C94.8751 62.3373 94.8751 62.3087 94.8751 62.2515C94.9323 61.2216 95.3901 60.2776 96.2769 59.3907C97.1638 58.5325 98.8802 58.1034 101.398 58.1034C101.569 58.1034 101.741 58.1034 101.884 58.1034C102.056 58.1034 102.199 58.1034 102.37 58.1034C102.542 58.132 102.714 58.132 102.857 58.132C103 58.132 103.171 58.132 103.314 58.132H103.629L103.6 57.5598C103.572 56.7588 103.257 56.1867 102.685 55.8434C102.113 55.5001 101.426 55.2998 100.654 55.2998C100.025 55.2998 99.3666 55.3856 98.7086 55.5287C97.9362 55.7289 97.1924 56.0436 96.3627 56.53ZM108.578 53.1542H111.725V56.015H111.811C112.011 55.1282 112.412 54.3844 113.012 53.8122C113.642 53.2401 114.414 52.954 115.33 52.954C115.415 52.954 115.501 52.954 115.587 52.954C115.673 52.954 115.759 52.9826 115.845 52.9826C115.959 52.9826 116.073 52.9826 116.188 53.0112C116.302 53.0398 116.388 53.0684 116.474 53.0684L116.36 55.5859C116.274 55.5573 116.188 55.5573 116.073 55.5573C115.959 55.5573 115.873 55.5573 115.759 55.5573C115.644 55.5287 115.559 55.5287 115.473 55.5287C115.387 55.5287 115.301 55.5287 115.215 55.5287C115.044 55.5287 114.843 55.5573 114.614 55.5859C114.386 55.6145 114.128 55.7003 113.899 55.8148C113.413 56.0436 112.984 56.4727 112.612 57.1021C112.211 57.7315 112.04 58.6755 112.04 59.9629V66.2852H108.578V53.1542Z" fill="white"/>
<path fill-rule="evenodd" clip-rule="evenodd" d="M10.4829 79.3007C13.4295 79.3007 15.8326 81.7038 15.8326 84.6504C15.8326 87.597 13.4295 90 10.4829 90C7.53635 90 5.1333 87.597 5.1333 84.6504C5.1333 81.7038 7.53635 79.3007 10.4829 79.3007ZM46.5573 0C67.1263 0 83.776 16.6783 83.776 37.2187H76.6241C76.6241 20.6262 63.1498 7.15194 46.5573 7.15194C42.495 7.15194 38.6044 7.95296 35.057 9.44056V1.80229C38.6616 0.629372 42.5236 0 46.5573 0Z" fill="#F85B51"/>
</svg>
