<svg width="203" height="43" viewBox="0 0 203 43" fill="none" xmlns="http://www.w3.org/2000/svg">
<path fill-rule="evenodd" clip-rule="evenodd" d="M18.8046 11.2461C17.0473 11.2461 15.744 12.0225 14.7041 13.6817C13.597 15.4503 13.0225 17.9252 13.0225 21.0391C13.0225 24.4361 13.5522 27.0371 14.5976 28.7747C15.5954 30.434 16.9492 31.2356 18.7402 31.2356C20.2789 31.2356 21.6439 30.4284 22.6865 28.8981C23.7292 27.3678 24.5588 24.7864 25.4249 20.4729C24.7494 17.2749 23.788 14.8 22.6501 13.2977C21.5822 11.8991 20.3658 11.2461 18.8046 11.2461Z" fill="#CF0A2C"/>
<path fill-rule="evenodd" clip-rule="evenodd" d="M29.5051 0.175781H12.4949C9.18218 0.17949 6.00621 1.4971 3.66377 3.83955C1.32132 6.18199 0.00370923 9.35796 0 12.6707V29.6809C0.00370923 32.9935 1.32132 36.1697 3.66377 38.512C6.00621 40.8545 9.18218 42.1721 12.4949 42.1758H29.5023C32.8147 42.1713 35.9902 40.8534 38.3325 38.5111C40.6748 36.1688 41.9927 32.9932 41.9972 29.6809V12.6707C41.9936 9.35844 40.6762 6.18289 38.3345 3.84053C35.9925 1.49817 32.8175 0.180232 29.5051 0.175781ZM37.2212 27.6741C37.2212 29.8743 36.9718 31.214 36.3608 32.2903C35.9998 32.8974 35.4849 33.3985 34.8683 33.743C34.2517 34.0875 33.5552 34.2632 32.8489 34.2523C32.1381 34.2467 31.4388 34.0712 30.8092 33.7407C30.1797 33.4103 29.6385 32.9341 29.2304 32.352C28.6867 31.6064 28.2298 30.6058 27.7786 29.1455C26.8426 30.4929 25.6709 31.6597 24.3199 32.5902C22.494 33.8341 20.3379 34.5037 18.1285 34.5129C14.384 34.5129 11.5279 33.3049 9.13714 30.7123C6.84444 28.2402 5.68128 24.9413 5.68128 20.9165C5.68128 17.3149 6.9033 14.0749 9.22122 11.5468C10.3204 10.3193 11.6719 9.34389 13.1832 8.68742C14.6945 8.03094 16.3298 7.7089 17.9772 7.74335C19.1531 7.71515 20.323 7.92009 21.4193 8.34629C22.5156 8.77251 23.5167 9.41158 24.3648 10.2266C25.4106 11.2505 26.2648 12.4531 26.8873 13.7778L26.977 13.974C27.5375 11.244 28.1878 8.23944 28.1878 8.23944H35.0827C35.0827 8.23944 31.439 21.0426 30.2703 25.0394C30.5438 25.8838 30.9799 26.6665 31.554 27.3433C31.7263 27.5538 31.9444 27.7223 32.1916 27.8359C32.4388 27.9496 32.7087 28.0054 32.9806 27.9992C33.7373 27.9992 34.197 27.2621 34.2559 26.5333L34.2699 26.3456H37.2324L37.2212 27.6741Z" fill="#CF0A2C"/>
<path fill-rule="evenodd" clip-rule="evenodd" d="M55.7755 12.9019L56.535 9.46007C56.6073 9.06387 56.8164 8.70559 57.1258 8.44767C57.4353 8.18973 57.8252 8.04847 58.2279 8.04847C58.6307 8.04847 59.0208 8.18973 59.33 8.44767C59.6394 8.70559 59.8485 9.06387 59.9208 9.46007L60.6776 12.9019H55.7755ZM63.0263 8.83505C62.5498 6.69091 61.1961 5.19141 58.2251 5.19141C55.4223 5.19141 53.9004 6.69091 53.4239 8.83505L51.2686 18.5496H53.5753C53.8435 18.5399 54.1013 18.4438 54.3104 18.2756C54.5195 18.1074 54.6686 17.8761 54.7356 17.6162L55.1729 15.6403H61.283L61.7174 17.6162C61.7847 17.8759 61.9341 18.1069 62.1431 18.2751C62.352 18.4432 62.6098 18.5394 62.8778 18.5496H65.1845L63.0263 8.83505Z" fill="#CF0A2C"/>
<path fill-rule="evenodd" clip-rule="evenodd" d="M70.8651 8.44124H76.0083V18.5594H79.1923V5.50391H69.5899C69.0834 5.50539 68.5979 5.70725 68.2397 6.06542C67.8818 6.42356 67.6797 6.9089 67.6783 7.41542V14.016C67.6783 14.8989 67.2719 15.4595 66.5572 15.6024L65.9014 15.7566L66.4928 18.5594H67.0982C69.2759 18.5594 70.8511 16.9393 70.8511 14.1786L70.8651 8.44124Z" fill="#CF0A2C"/>
<path fill-rule="evenodd" clip-rule="evenodd" d="M106.865 15.6743H105.705V8.38698H106.865C109.045 8.38698 110.074 9.76596 110.074 12.0306C110.074 14.2953 109.045 15.6743 106.865 15.6743ZM101.36 15.6743C99.1796 15.6743 98.1482 14.2953 98.1482 12.0306C98.1482 9.76596 99.1796 8.38698 101.36 8.38698H102.521V15.6743H101.36ZM106.865 5.5001H105.705V3.99219H103.462C103.209 3.99219 102.967 4.0925 102.787 4.27112C102.608 4.44977 102.507 4.69213 102.507 4.94514V5.5057H101.346C97.4223 5.5057 94.9502 8.18798 94.9502 12.0278C94.9502 15.8677 97.4111 18.5499 101.346 18.5499H102.507V20.1307H104.749C105.002 20.13 105.244 20.0294 105.423 19.851C105.602 19.6725 105.703 19.4305 105.705 19.1778V18.5527H106.865C110.789 18.5527 113.261 15.8705 113.261 12.0306C113.261 8.19079 110.8 5.5001 106.865 5.5001Z" fill="#CF0A2C"/>
<path fill-rule="evenodd" clip-rule="evenodd" d="M89.0747 15.6304H84.5033V11.7485H89.0747C89.8511 11.7485 90.7564 12.4436 90.7564 13.6881C90.7564 14.9325 89.8483 15.6276 89.0747 15.6276V15.6304ZM89.0747 8.81962H84.5033V5.50391H81.3193V17.6036C81.3202 17.8569 81.4211 18.0995 81.6002 18.2786C81.7793 18.4577 82.0217 18.5586 82.2751 18.5594H89.0747C89.7176 18.5731 90.3567 18.4566 90.9534 18.2168C91.5504 17.977 92.0922 17.6188 92.5468 17.1639C93.0014 16.709 93.3593 16.1668 93.599 15.5699C93.8383 14.973 93.9544 14.3339 93.9404 13.6909C93.9404 10.9133 92.1858 8.81962 89.0747 8.81962Z" fill="#CF0A2C"/>
<path fill-rule="evenodd" clip-rule="evenodd" d="M117.886 12.9019L118.642 9.46007C118.716 9.0648 118.926 8.70783 119.236 8.45095C119.545 8.1941 119.935 8.05349 120.337 8.05349C120.739 8.05349 121.128 8.1941 121.438 8.45095C121.747 8.70783 121.957 9.0648 122.031 9.46007L122.788 12.9019H117.886ZM125.137 8.83505C124.657 6.69091 123.306 5.19141 120.335 5.19141C117.533 5.19141 116.011 6.69091 115.534 8.83505L113.376 18.5496H115.683C115.951 18.5394 116.208 18.4432 116.418 18.2751C116.626 18.1069 116.776 17.8759 116.843 17.6162L117.28 15.6403H123.39L123.825 17.6162C123.892 17.8763 124.042 18.1077 124.251 18.2759C124.461 18.4441 124.719 18.54 124.988 18.5496H127.292L125.137 8.83505Z" fill="#CF0A2C"/>
<path fill-rule="evenodd" clip-rule="evenodd" d="M140.667 34.1533H134.795V31.5663H140.667C140.962 31.6215 141.226 31.7829 141.411 32.02C141.595 32.2569 141.686 32.5531 141.667 32.8528C141.667 33.6628 141.09 34.1392 140.667 34.1392V34.1533ZM140.42 26.5211C140.843 26.5211 141.423 26.9976 141.423 27.8076C141.442 28.1076 141.351 28.4041 141.166 28.641C140.981 28.8781 140.715 29.0393 140.42 29.0942H134.814V26.5211H140.42ZM143.604 30.092C143.912 29.7848 144.153 29.4174 144.311 29.0126C144.47 28.6079 144.543 28.1747 144.526 27.7403C144.526 25.428 142.735 23.8164 140.423 23.8164H132.631C132.378 23.8164 132.134 23.9171 131.955 24.0963C131.776 24.2756 131.675 24.5187 131.675 24.7722V35.9078C131.676 36.1609 131.777 36.4036 131.956 36.5827C132.135 36.7618 132.378 36.8627 132.631 36.8636H140.908C143.346 36.8636 144.966 35.1174 144.966 32.8079C144.968 32.2796 144.845 31.7583 144.607 31.2865C144.369 30.8146 144.024 30.4053 143.598 30.092H143.604Z" fill="#CF0A2C"/>
<path fill-rule="evenodd" clip-rule="evenodd" d="M119.313 30.3378C119.313 27.9973 120.56 26.2091 122.752 26.2091H123.458C125.65 26.2091 126.897 27.9973 126.897 30.3378C126.897 32.6781 125.65 34.4663 123.458 34.4663H122.763C120.569 34.4663 119.324 32.6753 119.324 30.3378H119.313ZM122.562 23.5156C118.638 23.5156 115.874 26.3184 115.874 30.3378C115.874 34.357 118.626 37.1738 122.564 37.1738H123.655C127.593 37.1738 130.342 34.371 130.342 30.349C130.342 26.3268 127.593 23.5268 123.655 23.5268L122.562 23.5156Z" fill="#CF0A2C"/>
<path fill-rule="evenodd" clip-rule="evenodd" d="M63.1333 23.8086L63.5509 25.7706C63.6145 26.0342 63.762 26.27 63.9713 26.4424C64.1807 26.6148 64.4402 26.7144 64.7113 26.7263H67.6794V36.8444H70.8634V26.7375H73.7419C74.0124 26.7255 74.2716 26.6257 74.4804 26.4533C74.6895 26.2809 74.8364 26.0451 74.8995 25.7818L75.3199 23.8198L63.1333 23.8086Z" fill="#CF0A2C"/>
<path fill-rule="evenodd" clip-rule="evenodd" d="M170.404 23.8086V28.9909H164.207V23.8086H161.021V36.8556H164.207V31.7881H170.404V36.8556H173.588V23.8086H170.404Z" fill="#CF0A2C"/>
<path fill-rule="evenodd" clip-rule="evenodd" d="M92.9444 31.2106L93.704 27.7686C93.7763 27.3725 93.9854 27.0142 94.2948 26.7563C94.6042 26.4983 94.9941 26.3571 95.3969 26.3571C95.7996 26.3571 96.1898 26.4983 96.4989 26.7563C96.8083 27.0142 97.0174 27.3725 97.0898 27.7686L97.8465 31.2078L92.9444 31.2106ZM100.198 27.1436C99.7188 24.9967 98.3678 23.5 95.3941 23.5C92.5913 23.5 91.0721 24.9995 90.5957 27.1436L88.4375 36.8582H90.7442C91.0119 36.8481 91.2692 36.7523 91.4783 36.5847C91.6873 36.4171 91.8367 36.1867 91.9046 35.9277L92.339 33.9489H98.4463L98.8835 35.9277C98.9511 36.1869 99.1005 36.4176 99.3093 36.5852C99.5184 36.7531 99.776 36.8487 100.044 36.8582H102.351L100.198 27.1436Z" fill="#CF0A2C"/>
<path fill-rule="evenodd" clip-rule="evenodd" d="M150.205 31.2106L150.964 27.7686C151.037 27.3725 151.246 27.0142 151.555 26.7563C151.865 26.4983 152.254 26.3571 152.657 26.3571C153.06 26.3571 153.45 26.4983 153.759 26.7563C154.069 27.0142 154.278 27.3725 154.35 27.7686L155.107 31.2078L150.205 31.2106ZM157.458 27.1436C156.979 24.9967 155.628 23.5 152.654 23.5C149.852 23.5 148.333 24.9995 147.856 27.1436L145.701 36.8582H148.007C148.275 36.8484 148.532 36.7528 148.741 36.5849C148.949 36.4173 149.098 36.1867 149.165 35.9277L149.602 33.9489H155.709L156.147 35.9277C156.215 36.1867 156.364 36.4171 156.573 36.5847C156.782 36.7523 157.039 36.8481 157.307 36.8582H159.617L157.458 27.1436Z" fill="#CF0A2C"/>
<path fill-rule="evenodd" clip-rule="evenodd" d="M64.125 36.8192V36.8556H57.9028C54.1359 36.8556 51.5068 34.1733 51.5068 30.3307C51.5068 26.4881 54.1359 23.8086 57.9028 23.8086H62.6227L62.1603 25.807C62.0897 26.0665 61.938 26.2966 61.7273 26.4636C61.5162 26.6305 61.2575 26.7256 60.9887 26.7347H57.9056C55.8932 26.7347 54.6936 28.237 54.6936 30.3307C54.6936 32.4244 55.8932 33.9239 57.9056 33.9239H62.5022C62.7707 33.9343 63.0289 34.0301 63.2391 34.1974C63.4496 34.3648 63.6006 34.5952 63.671 34.8544L64.125 36.8192Z" fill="#CF0A2C"/>
<path fill-rule="evenodd" clip-rule="evenodd" d="M83.8517 30.6205H79.2831V26.7415H83.8517C84.6309 26.7415 85.5334 27.4366 85.5334 28.6809C85.5334 29.9254 84.6252 30.6177 83.8517 30.6177V30.6205ZM83.8517 23.8125H77.0549C76.8015 23.8133 76.5591 23.9142 76.38 24.0933C76.2009 24.2724 76.1 24.5151 76.0991 24.7683V36.8567H79.2831V33.5466H83.8517C86.9684 33.5466 88.7201 31.4529 88.7201 28.6809C88.7347 28.0376 88.6187 27.3979 88.3793 26.8004C88.1397 26.2031 87.7818 25.6604 87.3269 25.2051C86.8717 24.7499 86.3293 24.3916 85.7321 24.1517C85.1348 23.9119 84.4952 23.7956 83.8517 23.8097V23.8125Z" fill="#CF0A2C"/>
<path fill-rule="evenodd" clip-rule="evenodd" d="M200.586 34.1039H193.725V31.5982H201.183V29.0756H193.725V26.5531H200.586C200.862 26.5759 201.137 26.4923 201.353 26.3193C201.57 26.1463 201.713 25.8971 201.752 25.6226L202.178 23.8008H191.496C191.243 23.8015 191 23.9024 190.821 24.0815C190.642 24.2606 190.541 24.5033 190.541 24.7565V35.892C190.541 36.1454 190.642 36.3879 190.821 36.567C191 36.7461 191.243 36.847 191.496 36.8478H202.178L201.752 35.026C201.711 34.753 201.567 34.5058 201.351 34.3345C201.134 34.1633 200.861 34.0809 200.586 34.1039Z" fill="#CF0A2C"/>
<path fill-rule="evenodd" clip-rule="evenodd" d="M175.772 36.8624V23.8154H178.959V32.4116L184.475 24.5637C184.662 24.3373 184.893 24.152 185.155 24.0194C185.417 23.8867 185.703 23.8096 185.997 23.793H188.348V36.8372H185.173V28.2326L179.654 36.0805C179.468 36.3069 179.237 36.4925 178.975 36.625C178.714 36.7576 178.427 36.8347 178.135 36.8512L175.772 36.8624Z" fill="#CF0A2C"/>
<path fill-rule="evenodd" clip-rule="evenodd" d="M111.961 30.2643L116.406 23.8177H113.48C113.183 23.7967 112.887 23.8614 112.627 24.004C112.367 24.1467 112.153 24.3612 112.011 24.6221L109.643 28.3415H109.219L106.851 24.6221C106.71 24.3606 106.497 24.1452 106.237 24.0016C105.977 23.858 105.681 23.7922 105.385 23.8121H102.364L106.904 30.4044L102.459 36.8509H105.385C105.681 36.8722 105.977 36.8074 106.238 36.6647C106.498 36.5221 106.712 36.3074 106.854 36.0464L109.222 32.3271H109.645L112.011 36.0493C112.153 36.3099 112.367 36.5246 112.627 36.6673C112.887 36.8099 113.183 36.8744 113.48 36.8537H116.498L111.961 30.2643Z" fill="#CF0A2C"/>
</svg>
