<svg width="140" height="49" viewBox="0 0 140 49" fill="none" xmlns="http://www.w3.org/2000/svg">
<path fill-rule="evenodd" clip-rule="evenodd" d="M35.7723 0H36.4566C39.4288 0.860365 42.3228 2.05314 44.8843 3.81298C49.0101 6.58961 52.3734 10.559 54.2505 15.1737C56.3623 20.1795 56.6948 25.9087 55.1891 31.1296C53.7813 36.2136 50.6331 40.7305 46.5268 43.9959C43.5742 46.3228 40.1132 48.0436 36.4566 48.943C35.9482 49.119 35.2639 48.8844 35.2639 48.2782C35.127 47.6916 35.7331 47.3787 36.1438 47.0854C42.401 42.9596 46.8983 36.194 48.052 28.7831C49.0297 23.0148 47.9738 16.9335 45.1776 11.8105C43.0267 7.8215 39.859 4.3996 36.0656 1.89672C35.7331 1.64252 35.2834 1.42742 35.2639 0.977688C35.1661 0.547505 35.5181 0.273753 35.7723 0Z" fill="#C1B60C"/>
<path fill-rule="evenodd" clip-rule="evenodd" d="M17.5092 4.86684C23.1798 4.1238 29.1241 6.00095 33.3086 9.89215C34.0126 10.5179 34.1103 11.6129 33.7193 12.4537C33.1327 13.7442 32.0181 14.7024 30.9231 15.5432C28.4202 17.3421 25.5849 18.6131 22.7105 19.6495C18.6042 21.0769 14.322 22.0546 9.98102 22.2892C7.88877 22.3479 5.75742 22.3675 3.72383 21.7613C2.84391 21.4875 1.92488 21.0769 1.37738 20.3143C0.966749 19.7668 0.927641 19.0042 1.12318 18.3589C2.5506 13.9398 5.60099 10.0681 9.57039 7.64347C11.9755 6.15738 14.713 5.21881 17.5092 4.86684ZM70.4412 12.6101C72.1033 10.8307 74.7039 10.5374 77.0112 10.4788C80.3549 10.5374 83.7377 10.3223 87.0814 10.7134C87.8636 10.7525 87.9809 11.6324 88.1178 12.2386C88.2938 13.3532 88.3915 14.4873 88.2742 15.6019C88.1569 15.9929 87.7267 15.9734 87.3943 15.9343C84.2657 15.641 81.1371 15.6605 78.0085 15.6605C77.2263 15.6996 76.366 15.641 75.7207 16.1298C75.1536 16.5795 74.9777 17.3226 74.9777 18.007C74.9581 19.2193 74.9777 20.4121 74.9777 21.6244C78.4582 21.6244 81.9583 21.6244 85.4389 21.6244C85.83 21.5657 86.2406 21.8591 86.2015 22.2892C86.2406 23.482 86.2211 24.6552 86.2211 25.848C86.2602 26.2391 86.0842 26.767 85.5953 26.7084C82.0561 26.7279 78.5169 26.7084 74.9777 26.7084C74.9777 28.038 74.9777 29.3873 74.9777 30.7169C74.9972 31.46 75.1927 32.2617 75.8576 32.7114C76.4442 33.0829 77.1481 33.0634 77.813 33.0829C80.8829 33.0634 83.9528 33.1611 87.0228 32.8678C87.4334 32.8092 87.8636 32.8483 88.2742 32.9656C88.4111 34.3735 88.3329 35.84 87.9809 37.2088C87.9027 37.6585 87.5312 38.0496 87.0619 38.0691C84.0701 38.4015 81.0589 38.3038 78.0476 38.3233C76.0922 38.2842 74.0782 38.2647 72.2597 37.4434C70.93 36.8568 69.835 35.7227 69.3266 34.3344C68.7596 32.8678 68.6814 31.284 68.7009 29.7392C68.7009 26.2195 68.7009 22.7194 68.7009 19.1997C68.6422 16.912 68.8182 14.37 70.4412 12.6101ZM94.4141 10.7525C97.3471 10.381 100.3 10.4983 103.233 10.4788C105.618 10.5765 108.063 11.0263 110.096 12.3364C111.7 13.3727 112.912 15.0348 113.342 16.8924C113.909 19.278 113.733 21.9373 112.423 24.0686C111.641 25.3592 110.429 26.3564 109.118 27.0408C111.133 30.4627 113.205 33.8651 115.239 37.2674C115.395 37.5216 115.571 37.8736 115.356 38.1473C114.789 38.3624 114.183 38.2451 113.596 38.2647C112.071 38.2256 110.526 38.3233 109.001 38.2256C108.454 38.2256 108.18 37.6976 107.945 37.287C106.361 34.3148 104.68 31.4013 103.115 28.4291C101.766 28.39 100.417 28.3705 99.0679 28.2531C99.0679 31.284 99.0679 34.3148 99.0679 37.3456C99.0874 37.6976 99.0288 38.1669 98.5986 38.2256C97.484 38.3429 96.3499 38.2451 95.2158 38.2842C94.5705 38.2451 93.8861 38.382 93.2604 38.1669C92.9084 37.9714 92.9671 37.5021 92.9475 37.1697C92.9475 28.9571 92.9475 20.7445 92.9475 12.5319C92.9671 12.1017 92.9475 11.652 93.1822 11.2609C93.4559 10.8698 94.0034 10.8503 94.4141 10.7525ZM99.0874 15.5236C99.0679 17.8505 99.0874 20.1774 99.0679 22.5239C99.0679 22.8759 99.0874 23.2278 99.1461 23.5798C101.277 23.6189 103.624 24.0491 105.579 22.915C107.887 21.6049 108.18 17.7919 105.912 16.3058C103.898 14.9957 101.375 15.4259 99.0874 15.5236ZM116.784 11.2218C117.703 10.6743 118.817 10.6156 119.873 10.5374C120.773 10.5179 121.692 10.4005 122.591 10.557C122.806 10.7721 122.806 11.0849 122.845 11.3587C123.178 18.8869 125.348 26.2195 128.379 33.0829C131.605 26.1609 133.639 18.6327 134.03 10.9872C134.01 10.5374 134.577 10.4983 134.91 10.4788C136.103 10.4788 137.295 10.5179 138.449 10.7721C139.055 10.9285 139.779 11.124 139.994 11.7693V13.0403C139.779 17.0684 138.879 21.0182 137.647 24.8312C136.494 28.3509 135.145 31.7924 133.424 35.0774C132.739 36.3484 131.82 37.6781 130.373 38.0887C129.005 38.382 127.597 38.3038 126.228 38.1865C124.546 37.9714 123.432 36.5244 122.708 35.1361C121.066 31.9488 119.814 28.5856 118.739 25.1832C117.488 21.0769 116.51 16.8337 116.392 12.5319C116.392 12.0822 116.295 11.476 116.784 11.2218ZM35.4987 12.395C35.7529 13.099 35.5964 13.8811 35.264 14.546C34.6187 15.8169 33.5628 16.7946 32.4483 17.6746C29.9845 19.5713 27.1492 20.8814 24.2748 21.9959C19.8166 23.6189 15.1237 24.7335 10.3525 24.9877C7.69324 25.0463 4.9166 25.0659 2.45283 23.9318C1.43604 23.5016 0.614782 22.6608 0.341029 21.5658C0.282368 22.8563 -0.0695998 24.1273 0.125938 25.4374C0.380136 27.4123 0.438798 29.6219 1.82711 31.2253C3.70427 33.3762 6.55912 34.2953 9.29664 34.7645C15.1237 35.6445 21.1267 34.5886 26.5821 32.4768C29.5152 31.3035 32.3114 29.7783 34.7361 27.7252C36.2808 26.376 37.7082 24.8117 38.5295 22.915C39.1161 21.5853 39.3116 20.0406 38.901 18.6327C38.2166 16.4036 37.1021 14.3113 35.7137 12.4341C35.6355 12.4341 35.5378 12.395 35.4987 12.395ZM39.8005 23.482C39.9374 27.9403 38.7055 32.4768 36.0462 36.0942C33.4846 39.7116 29.6521 42.3905 25.3894 43.5833C20.5596 44.9716 15.2019 44.4241 10.7632 42.0777C7.16528 40.1809 4.09535 37.1892 2.33551 33.4935C3.91936 35.7618 6.67644 36.7786 9.29664 37.3065C12.1515 37.8345 15.0846 37.8149 17.959 37.463C22.0261 36.9546 25.9955 35.8009 29.6912 34.0215C32.5851 32.6136 35.3618 30.7951 37.4736 28.3314C38.6859 26.9821 39.4876 25.281 39.8005 23.482Z" fill="#053B7B"/>
</svg>
