<svg width="28" height="27" viewBox="0 0 28 27" fill="none" xmlns="http://www.w3.org/2000/svg">
<path opacity="0.4" d="M1.05646 17.0156H10.082V26.0412C10.082 26.5717 10.5103 27 11.0408 27H16.1545C16.685 27 17.1133 26.5717 17.1133 26.0412V17.0156H26.1388C26.6694 17.0156 27.0977 16.5874 27.0977 16.0568V10.9432C27.0977 10.4126 26.6694 9.98438 26.1388 9.98438H17.1133V0.958807C17.1133 0.428267 16.685 0 16.1545 0H11.0408C10.5103 0 10.082 0.428267 10.082 0.958807V9.98438H1.05646C0.525923 9.98438 0.0976562 10.4126 0.0976562 10.9432V16.0568C0.0976562 16.5874 0.525923 17.0156 1.05646 17.0156Z" fill="#F85B51"/>
</svg>
