<svg width="25" height="25" viewBox="0 0 25 25" fill="none" xmlns="http://www.w3.org/2000/svg">
<g clip-path="url(#clip0)">
<path d="M6.44405 19.2064L11.9507 22.9608C12.1653 23.1068 12.4472 23.1068 12.6619 22.9608L18.1703 19.2064C19.8678 18.0491 21.2016 15.534 21.2016 13.4808V5.75519C21.2001 5.51445 21.0623 5.29554 20.8459 5.19008L12.5868 1.13465C12.4116 1.04887 12.2065 1.04887 12.0312 1.13465L3.77005 5.17839C3.55329 5.28354 3.41493 5.50246 3.41309 5.74351V13.4808C3.41309 15.534 4.74655 18.0491 6.44405 19.2064ZM4.67245 6.13644L12.3073 2.40109L19.9422 6.14751V13.4808C19.9422 15.1048 18.804 17.2503 17.461 18.1659L12.3092 21.678L7.15459 18.1659C5.8116 17.2503 4.67245 15.1048 4.67245 13.4808V6.13644Z" fill="white" stroke="white" stroke-width="0.5"/>
<path d="M12.3076 8.07031V16.0703" stroke="white" stroke-width="1.8"/>
<path d="M16.3076 12.0703L8.30762 12.0703" stroke="white" stroke-width="1.8"/>
</g>
<defs>
<clipPath id="clip0">
<path d="M0.307617 0.0703125H24.3076V24.0703H0.307617V0.0703125Z" fill="white"/>
</clipPath>
</defs>
</svg>
