<svg xmlns="http://www.w3.org/2000/svg" xmlns:xlink="http://www.w3.org/1999/xlink"><defs><clipPath id="clip0"><path d="M0 .992h16v16H0v-16z"/></clipPath></defs><symbol id="headphone"><path d="M21.164 9.448a3.984 3.984 0 00-.788-.392C19.952 4.544 16.622 1 12 1S4.048 4.544 3.624 9.056A3.986 3.986 0 001 12.812v1.292c0 2.205 1.794 4 4 4h.9c.702 0 1.272-.57 1.272-1.271v-6.75c0-.7-.57-1.27-1.271-1.27h-.902l-.067.001C5.458 5.12 8.163 2.271 12 2.271c3.837 0 6.542 2.85 7.068 6.543l-.067-.001h-.902c-.7 0-1.27.57-1.27 1.27v6.75c0 .7.57 1.27 1.27 1.27h.853c-.535 2.657-2.127 2.938-4.002 2.938a.635.635 0 000 1.27c2.66 0 4.882-.953 5.367-4.43A4.006 4.006 0 0023 14.104v-1.292a3.985 3.985 0 00-1.836-3.364zM5 10.084h.902v6.749H5a2.732 2.732 0 01-2.728-2.729v-1.292c0-.932.468-1.79 1.253-2.296.44-.283.95-.432 1.475-.432zm16.73 4.02a2.732 2.732 0 01-2.728 2.729h-.902v-6.75h.902c.525 0 1.036.15 1.475.434a2.72 2.72 0 011.253 2.295v1.292z"/></symbol><symbol id="lightning"><path d="M10.868 5.245a.484.484 0 00-.442-.317H6.299l1.27-3.58a.582.582 0 00-.055-.492.472.472 0 00-.398-.231h-4.35a.488.488 0 00-.452.345L.03 7.633a.582.582 0 00.055.493c.09.145.239.23.398.23h4.183l-1.671 5.667c-.108.311-.104.666.313.801s.557 0 .867-.39l6.61-8.614a.578.578 0 00.082-.575z"/></symbol><symbol id="logo"><path d="M11.287 37.811c-.067.169-.168.337-.236.506C9.199 42.663 8.29 47.145 8.29 51.76c0 3.032.505 6.03 1.516 8.996.438 1.314 1.583 3.942 3.47 7.918 1.314 2.662 2.291 5.054 2.932 7.143.943 3.032 1.415 6.065 1.415 9.097 0 1.786-.202 3.706-.607 5.728H8.356c.64-2.359.943-4.616.943-6.705 0-2.022-.37-4.144-1.078-6.402-.37-1.145-1.213-3.268-2.594-6.3-2.022-4.414-3.336-7.548-3.909-9.435A35.274 35.274 0 010 50.851c0-4.043.674-8.087 2.055-12.096 1.382-4.01 3.336-7.885 5.863-11.658h6.3C19.105 15.27 28.978 6.038 41.242 2.062v8.997c-12.837 5.323-21.867 17.958-21.867 32.75 0 11.254 5.256 21.294 13.444 27.763v-9.03h8.423v28.1h-8.423v-8.86C19.744 74.2 10.95 60.048 10.95 43.841a29.789 29.789 0 01.337-6.03zm86.054 48.115c0-1.213-.236-2.123-.741-2.73-.506-.606-1.045-.977-1.618-1.111-.1-.034-.168-.034-.236-.034h-.471c-.068 0-.169.034-.236.034-.607.135-1.146.505-1.618 1.112-.505.606-.74 1.516-.74 2.729 0 1.246.269 2.19.774 2.796.506.607 1.078.978 1.685 1.079.067 0 .135.033.202.033h.404c.068 0 .135 0 .203-.033.606-.102 1.179-.472 1.684-1.079.472-.606.708-1.55.708-2.796zm0 4.616v-1.584a3.01 3.01 0 01-.708.944 3.074 3.074 0 01-.775.573 2.111 2.111 0 01-.741.235c-.236.034-.472.068-.674.068-1.112 0-2.055-.438-2.864-1.28-.808-.843-1.213-2.056-1.213-3.606 0-1.584.404-2.796 1.213-3.639.809-.808 1.82-1.246 2.965-1.246.708 0 1.28.202 1.752.64.472.404.843.91 1.045 1.482h.067v-1.954h1.112l-.067 1.82v7.614c0 .236 0 .472-.034.775a8.616 8.616 0 01-.168.91c-.169.606-.573 1.18-1.146 1.685-.607.505-1.55.775-2.898.775-.404 0-.876-.034-1.381-.102a8.102 8.102 0 01-1.617-.404l.067-1.112c.067.034.168.068.303.135.135.067.303.101.472.168.27.102.606.169.943.27.37.067.775.101 1.18.101 1.044 0 1.785-.236 2.223-.707.438-.472.708-.977.809-1.517.034-.168.067-.37.067-.539.068-.202.068-.37.068-.505zm5.189.135h-1.146V82.96l-.067-1.719h1.111v1.921h.034c.202-.91 1.954-2.089 2.864-2.089.169 0 .337 0 .506.034.168 0 .336.033.505.1v1.113a1.676 1.676 0 00-.539-.102h-.404c-1.281 0-2.831 1.517-2.831 3.067v5.39h-.033zm4.582-4.718c0-1.347.371-2.493 1.145-3.436.775-.944 1.887-1.449 3.37-1.449 1.482 0 2.628.472 3.369 1.449.775.943 1.146 2.123 1.146 3.437 0 1.314-.371 2.46-1.146 3.436-.775.944-1.887 1.415-3.369 1.415-1.483 0-2.595-.471-3.37-1.415a5.554 5.554 0 01-1.145-3.436zm1.213 0c0 .169 0 .371.034.607.033.202.067.404.101.64.168.674.505 1.28 1.01 1.82.506.572 1.213.842 2.157.842.943 0 1.685-.27 2.156-.842.506-.573.843-1.18 1.011-1.82.067-.202.101-.404.101-.64a3.63 3.63 0 00.034-.606c0-.169 0-.371-.034-.573l-.101-.607a4.3 4.3 0 00-.977-1.853c-.505-.573-1.213-.842-2.19-.842-.944 0-1.685.27-2.19.842-.506.573-.843 1.18-.977 1.853a1.891 1.891 0 00-.101.607c0 .202-.034.37-.034.573zm16.375-4.75h1.146v7.412l.067 2.056h-1.112v-1.955h-.034c-.37 1.011-2.089 2.292-3.639 2.09-.168-.034-.37 0-.606-.034-.202-.034-.438-.034-.64-.101-.539-.169-1.011-.506-1.449-1.045-.438-.505-.64-1.348-.64-2.527V81.21h1.145v5.829c0 .135 0 .337.034.573 0 .235.034.471.101.707.101.37.337.741.64 1.045.304.337.843.505 1.55.505h.27c.101 0 .168-.034.269-.034 1.348-.303 2.864-1.65 2.864-3.538V81.21h.034zm4.313 4.717c0 1.314.303 2.291.876 2.931.573.64 1.246.977 1.988.977h.202c.067 0 .135 0 .202-.033.606-.102 1.179-.472 1.685-1.079.505-.606.775-1.55.775-2.796 0-1.213-.236-2.123-.742-2.73-.505-.606-1.044-.977-1.617-1.111-.101-.034-.168-.034-.236-.034h-.438c-.067 0-.135 0-.202.034-.606.1-1.179.472-1.685 1.078-.572.606-.808 1.55-.808 2.763zm0 8.794h-1.146V83.062l-.067-1.82h1.112v1.955h.067c.27-.674.674-1.18 1.247-1.55a3.244 3.244 0 011.785-.54h.068c1.044 0 1.954.405 2.729 1.214.775.808 1.146 2.021 1.146 3.672 0 1.584-.337 2.763-1.045 3.504-.674.742-1.449 1.18-2.257 1.314-.135.034-.236.034-.371.068-.135 0-.27.033-.404.033-.674 0-1.247-.168-1.719-.539-.471-.37-.842-.775-1.112-1.28h-.067l.034 1.651v3.976zM48.148 77.3l.438-3.639c.37.169.809.337 1.247.506.438.135.91.27 1.348.404.438.101.876.169 1.347.27.438.067.876.1 1.247.1 1.044 0 1.853-.269 2.46-.774.606-.506.91-1.078.91-1.752 0-.775-.237-1.348-.675-1.752-.438-.405-1.01-.775-1.718-1.112-.27-.135-.573-.27-.876-.405-.303-.134-.64-.303-.943-.438-.102-.067-.203-.1-.304-.168a1.365 1.365 0 01-.303-.169c-1.28-.673-2.291-1.381-3.066-2.156-.775-.775-1.146-1.887-1.146-3.336 0-.303.034-.707.135-1.179.068-.472.236-.943.404-1.415.371-.842 1.045-1.617 1.955-2.291.91-.674 2.29-1.045 4.11-1.045a21.8 21.8 0 012.696.169c.808.135 1.516.236 2.123.404.235.068.471.135.673.169.203.067.371.1.506.134l-.438 3.37c-.37-.169-.775-.303-1.213-.438-.404-.135-.843-.236-1.247-.337-.37-.068-.741-.135-1.078-.169a10.865 10.865 0 00-1.044-.067c-.91 0-1.584.135-2.022.404-.438.27-.741.573-.944.876-.067.169-.134.337-.168.506-.034.168-.034.303-.034.404 0 .674.202 1.213.607 1.617.404.405.842.742 1.314.977.168.068.303.135.438.203.135.067.27.134.404.168.034.034.034.034.068.034h.1c.034.033.068.033.135.067.034.034.068.034.135.067a21.644 21.644 0 014.077 2.292c1.213.876 1.853 2.358 1.853 4.447v.236c0 .067 0 .169-.033.236-.101 1.415-.775 2.695-2.022 3.875-1.247 1.145-3.235 1.752-5.964 1.752-1.112 0-2.089-.101-2.999-.303a25.035 25.035 0 01-2.493-.742zm24.9-6.233h-1.786c-.337 0-.674.034-1.01.067a6.24 6.24 0 00-2.292.64c-.708.338-1.045.944-1.045 1.82v.067c.034.472.203.91.54 1.314.337.405 1.01.607 1.92.607.977 0 1.853-.303 2.594-.91.742-.606 1.112-1.684 1.112-3.234v-.371h-.033zm-8.491-4.481v-3.201c.606-.236 1.18-.438 1.752-.573a29.883 29.883 0 011.685-.337c.37-.034.775-.067 1.145-.101s.775-.034 1.146-.034c2.19 0 3.74.37 4.683 1.078.944.742 1.55 1.55 1.853 2.426.135.439.236.877.27 1.315.034.438.067.808.067 1.145v9.805h-3.976v-2.291h-.067a3.9 3.9 0 01-1.044 1.347c-.405.337-.876.573-1.314.742-.472.168-.944.303-1.382.337-.438.033-.809.067-1.078.067-1.786 0-3.1-.404-3.909-1.18-.808-.774-1.314-1.65-1.482-2.594-.034-.168-.067-.303-.067-.471v-.472-.135-.135c.067-1.212.606-2.324 1.65-3.369 1.045-1.01 3.067-1.516 6.032-1.516h1.145c.202.034.405.034.573.034h.91l-.034-.674c-.034-.944-.404-1.618-1.078-2.022a4.605 4.605 0 00-2.392-.64c-.742 0-1.517.101-2.291.27-.91.235-1.82.606-2.797 1.179zm12.77-3.976h4.481l3.268 9.603.64 2.29h.102l.572-2.29 3.134-9.603h4.178l-5.728 15.533h-4.785L77.327 62.61zm17.183 0h4.077v15.533H94.51V62.61zm4.145-5.694v4.211h-4.178v-4.211h4.178zm4.144 8.659h-3.066v-2.999h3.066v-3.1l4.077-1.28v4.38h3.605v2.999h-3.605v7.042c0 .775.101 1.415.303 1.92.202.54.775.809 1.719.809h.269l.708-.101c.236-.034.438-.101.64-.169v2.865c-.303.067-.64.1-.977.168-.371.034-.708.101-1.078.135-.169.033-.371.033-.539.033h-.54c-1.381 0-2.392-.27-2.998-.842-.607-.573-1.045-1.213-1.247-1.887a4.133 4.133 0 01-.236-1.078c-.034-.37-.034-.674-.034-.943v-7.952h-.067zm19.037 5.492h-1.786c-.337 0-.674.034-1.011.067a6.241 6.241 0 00-2.291.64c-.707.338-1.044.944-1.044 1.82v.067c.033.472.202.91.539 1.314.337.405.977.607 1.92.607.977 0 1.854-.303 2.595-.91.741-.606 1.112-1.684 1.112-3.234v-.371h-.034zm-8.457-4.481v-3.201c.606-.236 1.179-.438 1.752-.573a29.879 29.879 0 011.685-.337c.37-.034.775-.067 1.145-.101.371-.034.775-.034 1.146-.034 2.19 0 3.74.37 4.683 1.078.944.742 1.55 1.55 1.853 2.426.135.439.236.877.27 1.315.034.438.067.808.067 1.145v9.805h-3.976v-2.291h-.067a3.896 3.896 0 01-1.044 1.347 4.262 4.262 0 01-1.315.742c-.471.168-.943.303-1.381.337-.438.033-.809.067-1.078.067-1.786 0-3.1-.404-3.942-1.18-.809-.774-1.314-1.65-1.483-2.594-.033-.168-.067-.303-.067-.471v-.472-.135-.135c.067-1.212.606-2.324 1.651-3.369 1.044-1.01 3.066-1.516 6.031-1.516h1.146c.202.034.404.034.572.034h.91l-.034-.674c-.033-.944-.404-1.618-1.078-2.022a4.604 4.604 0 00-2.392-.64c-.741 0-1.516.101-2.291.27-.91.235-1.786.606-2.763 1.179zm14.387-3.976h3.706v3.37h.101c.236-1.045.708-1.921 1.416-2.595.741-.674 1.651-1.011 2.729-1.011h.303c.101 0 .202.034.303.034.135 0 .27 0 .405.033.134.034.235.068.336.068l-.134 2.965c-.101-.034-.202-.034-.337-.034h-.371c-.135-.034-.236-.034-.337-.034h-.303c-.202 0-.438.034-.708.068a2.73 2.73 0 00-.842.27c-.573.269-1.078.774-1.516 1.516-.472.74-.674 1.853-.674 3.369v7.446h-4.077V62.61z" fill="#000"/><path fill-rule="evenodd" clip-rule="evenodd" d="M12.231 93.399c3.47 0 6.301 2.83 6.301 6.3 0 3.471-2.83 6.301-6.3 6.301-3.471 0-6.301-2.83-6.301-6.3 0-3.471 2.83-6.301 6.3-6.301zM54.72 0c24.226 0 43.835 19.643 43.835 43.835h-8.423c0-19.542-15.87-35.412-35.412-35.412-4.785 0-9.367.944-13.545 2.696V2.123C45.42.74 49.968 0 54.72 0z" fill="#F85B51"/></symbol><symbol id="phone"><g clip-path="url(#clip0)"><path d="M12.164 11.575c-.523-.515-1.175-.515-1.695 0-.396.393-.792.786-1.182 1.186-.106.11-.196.133-.326.06-.256-.14-.53-.253-.776-.406-1.148-.723-2.11-1.652-2.963-2.697-.423-.52-.799-1.076-1.062-1.702-.053-.126-.043-.21.06-.313.396-.383.782-.775 1.172-1.168.543-.546.543-1.186-.003-1.735-.31-.313-.62-.62-.93-.932-.319-.32-.635-.643-.958-.959-.523-.51-1.175-.51-1.695.003-.4.393-.782.796-1.188 1.182-.377.357-.566.793-.606 1.302-.064.83.14 1.612.426 2.374.586 1.578 1.478 2.98 2.56 4.265a15.844 15.844 0 005.247 4.105c.92.446 1.872.79 2.907.846.712.04 1.332-.14 1.828-.696.34-.38.722-.726 1.082-1.089.533-.54.536-1.192.007-1.724a509.485 509.485 0 00-1.905-1.902zM11.528 8.922l1.229-.21a5.491 5.491 0 00-1.535-2.963 5.462 5.462 0 00-3.13-1.561L7.92 5.423c.922.13 1.761.546 2.424 1.208a4.237 4.237 0 011.185 2.291zM13.45 3.583A9.059 9.059 0 008.256.993l-.173 1.234a7.855 7.855 0 014.488 2.238 7.849 7.849 0 012.2 4.245L16 8.5a9.126 9.126 0 00-2.55-4.918z"/></g></symbol><symbol id="search"><path d="M20.755 19.58l-4.808-4.809A8.431 8.431 0 009.429 1 8.428 8.428 0 001 9.429a8.428 8.428 0 008.429 8.428 8.384 8.384 0 005.338-1.906l4.809 4.804a.833.833 0 001.18-1.175zM9.43 16.18c-3.727 0-6.756-3.029-6.756-6.751A6.763 6.763 0 019.43 2.673c3.722 0 6.755 3.033 6.755 6.756 0 3.722-3.033 6.75-6.755 6.75z" stroke="#000" stroke-width=".5"/></symbol><symbol id="shield-plus"><path d="M3.444 19.206l5.507 3.755a.632.632 0 00.71 0l5.51-3.755c1.697-1.157 3.03-3.672 3.03-5.725V5.755a.633.633 0 00-.355-.565l-8.26-4.055a.632.632 0 00-.555 0L.77 5.178a.633.633 0 00-.357.566v7.737c0 2.053 1.334 4.568 3.031 5.725zM1.672 6.136l7.635-3.735 7.635 3.747v7.333c0 1.624-1.138 3.77-2.481 4.685l-5.152 3.512-5.154-3.512c-1.343-.916-2.483-3.061-2.483-4.685V6.136z" fill="#F85B51" stroke="#F85B51" stroke-width=".5"/></symbol></svg>