<svg width="24" height="23" viewBox="0 0 24 23" xmlns="http://www.w3.org/2000/svg">
<path d="M21.1643 9.44827C20.9154 9.28789 20.6511 9.15705 20.3762 9.05635C19.9525 4.54355 16.6217 1 12 1C7.37834 1 4.04752 4.54351 3.62381 9.0563C3.34901 9.15692 3.08478 9.28775 2.83612 9.44796C1.68641 10.1882 1 11.4458 1 12.812V14.1043C1 16.3094 2.79402 18.1035 4.99919 18.1035H5.90095C6.60157 18.1035 7.17158 17.5334 7.17158 16.8328V10.0835C7.17158 9.38285 6.60157 8.81279 5.90095 8.81279H4.99919C4.97663 8.81279 4.95417 8.81365 4.93162 8.81396C5.45782 5.1202 8.16299 2.27063 12 2.27063C15.837 2.27063 18.5422 5.12016 19.0684 8.81405C19.0458 8.81369 19.0234 8.81288 19.0008 8.81288H18.0991C17.3984 8.81288 16.8284 9.3829 16.8284 10.0835V16.8328C16.8284 17.5334 17.3984 18.1035 18.0991 18.1035H18.9524C18.4166 20.7605 16.8251 21.0405 14.9499 21.0405C14.5991 21.0405 14.3146 21.325 14.3146 21.6758C14.3146 22.0267 14.599 22.3112 14.9499 22.3112C17.6099 22.3112 19.8318 21.3577 20.317 17.8807C21.8776 17.3352 23 15.8485 23 14.1043V12.812C23 11.4458 22.3137 10.1883 21.1643 9.44827ZM4.99919 10.0835H5.90095L5.90176 16.8328L4.99919 16.8328C3.49468 16.8328 2.27068 15.6088 2.27068 14.1043V12.8121C2.27068 11.8798 2.73923 11.0217 3.52423 10.5162C3.96345 10.2331 4.47352 10.0835 4.99919 10.0835ZM21.7294 14.1043C21.7294 15.6088 20.5054 16.8328 19.0009 16.8328H18.0991V10.0835H19.0009C19.5265 10.0835 20.0366 10.2331 20.4763 10.5165C21.261 11.0216 21.7294 11.8798 21.7294 12.812V14.1043Z" stroke-width="0.5"/>
</svg>
