<svg width="11" height="15" viewBox="0 0 11 15" xmlns="http://www.w3.org/2000/svg">
<path d="M10.8676 5.24519C10.7899 5.05252 10.6168 4.92844 10.4258 4.92844C9.87304 4.92844 6.29934 4.92844 6.29934 4.92844L7.56838 1.3484C7.62461 1.18425 7.60428 1.00005 7.51395 0.855598C7.42368 0.7112 7.27495 0.625 7.11605 0.625H2.7659C2.56483 0.625 2.3847 0.76245 2.31353 0.970217L0.0313039 7.63341C-0.024924 7.79756 -0.00458924 7.98177 0.0857349 8.12622C0.176059 8.27061 0.324786 8.35686 0.483681 8.35686H4.66724L2.99551 14.023C2.88808 14.3343 2.89232 14.6887 3.30896 14.824C3.72561 14.9593 3.86586 14.824 4.17563 14.4345L10.7856 5.81996C10.9132 5.66302 10.9453 5.43786 10.8676 5.24519Z" />
</svg>
