<svg width="16" height="17" viewBox="0 0 16 17" xmlns="http://www.w3.org/2000/svg">
<g>
<g clip-path="url(#clip0)">
<path d="M12.1641 11.5755C11.6414 11.0595 10.9888 11.0595 10.4694 11.5755C10.0732 11.9684 9.67699 12.3613 9.28744 12.7608C9.1809 12.8707 9.091 12.894 8.96115 12.8208C8.70479 12.6809 8.43177 12.5677 8.18539 12.4146C7.03673 11.6921 6.07452 10.7632 5.22218 9.71771C4.79934 9.19831 4.42311 8.64229 4.16009 8.01636C4.10682 7.88984 4.11681 7.8066 4.22002 7.70339C4.61622 7.3205 5.00244 6.92763 5.39198 6.53475C5.93468 5.98872 5.93468 5.34947 5.38866 4.80011C5.07902 4.48714 4.76938 4.18083 4.45974 3.86786C4.14011 3.54824 3.82381 3.22528 3.50086 2.90898C2.97813 2.39958 2.32556 2.39958 1.80617 2.91231C1.40663 3.30519 1.02375 3.70805 0.617555 4.09427C0.241327 4.45052 0.0515486 4.88668 0.0115952 5.39608C-0.0516643 6.22511 0.151432 7.00753 0.437765 7.76998C1.02375 9.34814 1.91604 10.7498 2.99811 12.035C4.45974 13.773 6.20437 15.148 8.24532 16.1402C9.16425 16.5864 10.1165 16.9293 11.1519 16.9859C11.8644 17.0258 12.4837 16.8461 12.9798 16.29C13.3194 15.9105 13.7023 15.5642 14.0619 15.2013C14.5946 14.6619 14.5979 14.0094 14.0685 13.4767C13.4359 12.8407 12.8 12.2081 12.1641 11.5755Z" />
<path d="M11.5281 8.92198L12.7566 8.71222C12.5635 7.58354 12.0308 6.5614 11.2218 5.74901C10.3661 4.89334 9.28402 4.35397 8.09208 4.1875L7.91895 5.42273C8.8412 5.55257 9.68022 5.96875 10.3428 6.63132C10.9687 7.25725 11.3782 8.04966 11.5281 8.92198Z" />
<path d="M13.4496 3.5825C12.0313 2.16415 10.2367 1.26853 8.25565 0.992188L8.08252 2.22741C9.79386 2.46713 11.3454 3.2429 12.5706 4.4648C13.7326 5.62678 14.495 7.09507 14.7714 8.70985L16 8.5001C15.677 6.62894 14.7947 4.93093 13.4496 3.5825Z" />
</g>
</g>
<defs>
<clipPath id="clip0">
<path d="M0 0.992188H16V16.9922H0V0.992188Z" />
</clipPath>
</defs>
</svg>
