<svg width="22" height="22" viewBox="0 0 22 22" xmlns="http://www.w3.org/2000/svg">
<path d="M20.7551 19.5796L15.9469 14.7714C17.1388 13.3184 17.8571 11.4571 17.8571 9.42857C17.8571 4.77551 14.0816 1 9.42857 1C4.77143 1 1 4.77551 1 9.42857C1 14.0816 4.77143 17.8571 9.42857 17.8571C11.4571 17.8571 13.3143 17.1429 14.7673 15.951L19.5755 20.7551C19.902 21.0816 20.4286 21.0816 20.7551 20.7551C21.0816 20.4327 21.0816 19.902 20.7551 19.5796ZM9.42857 16.1796C5.70204 16.1796 2.67347 13.151 2.67347 9.42857C2.67347 5.70612 5.70204 2.67347 9.42857 2.67347C13.151 2.67347 16.1837 5.70612 16.1837 9.42857C16.1837 13.151 13.151 16.1796 9.42857 16.1796Z" stroke="black" stroke-width="0.5"/>
</svg>
