<svg width="19" height="24" viewBox="0 0 19 24" fill="none" xmlns="http://www.w3.org/2000/svg">
<path d="M3.44405 19.2064L8.95069 22.9608C9.1653 23.1068 9.44724 23.1068 9.66185 22.9608L15.1703 19.2064C16.8678 18.0491 18.2016 15.534 18.2016 13.4808V5.75519C18.2001 5.51445 18.0623 5.29554 17.8459 5.19008L9.58683 1.13465C9.41158 1.04887 9.2065 1.04887 9.03125 1.13465L0.770049 5.17839C0.553289 5.28354 0.414931 5.50246 0.413086 5.74351V13.4808C0.413086 15.534 1.74655 18.0491 3.44405 19.2064ZM1.67245 6.13644L9.30735 2.40109L16.9422 6.14751V13.4808C16.9422 15.1048 15.804 17.2503 14.461 18.1659L9.30919 21.678L4.15459 18.1659C2.8116 17.2503 1.67245 15.1048 1.67245 13.4808V6.13644Z" fill="#F85B51" stroke="#F85B51" stroke-width="0.5"/>
</svg>
